<?xml version="1.0" encoding="UTF-8" standalone="no"?>
<svg xmlns="http://www.w3.org/2000/svg"><symbol id="dxre-AddParagraphToTableOfContents" viewBox="0 0 18 18"><path id="_x32_" d="M13 18c-2.8 0-5-2.2-5-5s2.2-5 5-5 5 2.2 5 5-2.2 5-5 5zm3-6h-2v-2h-2v2h-2v2h2v2h2v-2h2v-2zM4 4h8v2H4V4zm2 10H4v-2h2v2zM4 8h3l-1 2H4V8zm10-6H2v14h5v2H2c-1.1 0-2-.9-2-2V2C0 .9.9 0 2 0h12c1.1 0 2 .9 2 2v4h-2V2z" style="fill-rule:evenodd;clip-rule:evenodd;fill:currentColor"/></symbol><symbol id="dxre-AlignBottomCenter" viewBox="0 0 18 18"><path id="_x33_" d="M2 0h14c1.1 0 2 .9 2 2v14c0 1.1-.9 2-2 2H2c-1.1 0-2-.9-2-2V2C0 .9.9 0 2 0z" style="opacity:.25;fill-rule:evenodd;clip-rule:evenodd;fill:currentColor"/><path id="_x32_" d="M14 12H4v-2h10v2zm-2 4H6v-2h6v2zM6 6h6v2H6V6z" style="fill-rule:evenodd;clip-rule:evenodd;fill:currentColor"/></symbol><symbol id="dxre-AlignBottomLeft" viewBox="0 0 18 18"><path id="_x33_" d="M2 0h14c1.1 0 2 .9 2 2v14c0 1.1-.9 2-2 2H2c-1.1 0-2-.9-2-2V2C0 .9.9 0 2 0z" style="opacity:.25;fill-rule:evenodd;clip-rule:evenodd;fill:currentColor"/><path id="_x32_" d="M12 12H2v-2h10v2zm-4 4H2v-2h6v2zM2 6h6v2H2V6z" style="fill-rule:evenodd;clip-rule:evenodd;fill:currentColor"/></symbol><symbol id="dxre-AlignBottomRight" viewBox="0 0 18 18"><path id="_x33_" d="M2 0h14c1.1 0 2 .9 2 2v14c0 1.1-.9 2-2 2H2c-1.1 0-2-.9-2-2V2C0 .9.9 0 2 0z" style="opacity:.25;fill-rule:evenodd;clip-rule:evenodd;fill:currentColor"/><path id="_x32_" d="M6 10h10v2H6v-2zm4 4h6v2h-6v-2zm6-6h-6V6h6v2z" style="fill-rule:evenodd;clip-rule:evenodd;fill:currentColor"/></symbol><symbol id="dxre-AlignCenter" viewBox="0 0 18 18"><path id="_x32_" d="M0 0h18v2H0V0m4 4h10v2H4V4M0 8h18v2H0V8m4 4h10v2H4v-2m-4 4h18v2H0v-2z" style="fill:currentColor"/></symbol><symbol id="dxre-AlignFloatingObjectBottomCenter" viewBox="0 0 18 18"><path id="_x33_" d="M18 2v2H0V2h18zM0 6h18v2H0V6zm14 8h4v2h-4v-2zm0-4h4v2h-4v-2zM0 14h4v2H0v-2zm0-4h4v2H0v-2z" style="fill-rule:evenodd;clip-rule:evenodd;fill:currentColor"/><rect id="_x32__1_" x="5.9" y="10" width="6.1" height="6" style="fill-rule:evenodd;clip-rule:evenodd;fill:currentColor"/></symbol><symbol id="dxre-AlignFloatingObjectBottomLeft" viewBox="0 0 18 18"><path id="_x33_" d="M0 8V6h18v2H0zm0-6h18v2H0V2zm8 8h10v2H8v-2zm0 4h10v2H8v-2z" style="fill-rule:evenodd;clip-rule:evenodd;fill:currentColor"/><rect id="_x32__1_" x="-0.1" y="10" width="6.1" height="6" style="fill-rule:evenodd;clip-rule:evenodd;fill:currentColor"/></symbol><symbol id="dxre-AlignFloatingObjectBottomRight" viewBox="0 0 18 18"><path id="_x33_" d="M-.1 8V6h18v2h-18zm18-4h-18V2h18v2zm-8 8h-10v-2h10v2zm0 4h-10v-2h10v2z" style="fill-rule:evenodd;clip-rule:evenodd;fill:currentColor"/><rect id="_x32__1_" x="11.9" y="10" transform="matrix(-1 1.034669e-10 -1.034669e-10 -1 29.9172 26)" width="6.1" height="6" style="fill-rule:evenodd;clip-rule:evenodd;fill:currentColor"/></symbol><symbol id="dxre-AlignFloatingObjectMiddleCenter" viewBox="0 0 18 18"><path id="_x33_" d="M18 2v2H0V2h18zM0 14h18v2H0v-2zm14-4h4v2h-4v-2zm0-4h4v2h-4V6zM0 10h4v2H0v-2zm0-4h4v2H0V6z" style="fill-rule:evenodd;clip-rule:evenodd;fill:currentColor"/><rect id="_x32__1_" x="5.9" y="6" width="6.1" height="6" style="fill-rule:evenodd;clip-rule:evenodd;fill:currentColor"/></symbol><symbol id="dxre-AlignFloatingObjectMiddleLeft" viewBox="0 0 18 18"><path id="_x33_" d="M18 2v2H0V2h18zM0 14h18v2H0v-2zm8-4h10v2H8v-2zm0-4h10v2H8V6z" style="fill-rule:evenodd;clip-rule:evenodd;fill:currentColor"/><rect id="_x32__1_" x="-0.1" y="6" width="6.1" height="6" style="fill-rule:evenodd;clip-rule:evenodd;fill:currentColor"/></symbol><symbol id="dxre-AlignFloatingObjectMiddleRight" viewBox="0 0 18 18"><path id="_x33_" d="M17.9 2v2h-18V2h18zm0 14h-18v-2h18v2zm-8-4h-10v-2h10v2zm0-4h-10V6h10v2z" style="fill-rule:evenodd;clip-rule:evenodd;fill:currentColor"/><rect id="_x32__1_" x="11.9" y="6" transform="matrix(-1 -1.931780e-10 1.931780e-10 -1 29.9172 18)" width="6.1" height="6" style="fill-rule:evenodd;clip-rule:evenodd;fill:currentColor"/></symbol><symbol id="dxre-AlignFloatingObjectTopCenter" viewBox="0 0 18 18"><path id="_x33_" d="M0 16v-2h18v2H0zm0-6h18v2H0v-2zm14-8h4v2h-4V2zm0 4h4v2h-4V6zM0 2h4v2H0V2zm0 4h4v2H0V6z" style="fill-rule:evenodd;clip-rule:evenodd;fill:currentColor"/><rect id="_x32__1_" x="5.9" y="2" width="6.1" height="6" style="fill-rule:evenodd;clip-rule:evenodd;fill:currentColor"/></symbol><symbol id="dxre-AlignFloatingObjectTopLeft" viewBox="0 0 18 18"><path id="_x33_" d="M18 10v2H0v-2h18zM0 14h18v2H0v-2zm8-8h10v2H8V6zm0-4h10v2H8V2z" style="fill-rule:evenodd;clip-rule:evenodd;fill:currentColor"/><rect id="_x32__1_" x="-0.1" y="2" width="6.1" height="6" style="fill-rule:evenodd;clip-rule:evenodd;fill:currentColor"/></symbol><symbol id="dxre-AlignFloatingObjectTopRight" viewBox="0 0 18 18"><path id="_x33_" d="M17.9 10v2h-18v-2h18zm0 6h-18v-2h18v2zm-8-8h-10V6h10v2zm0-4h-10V2h10v2z" style="fill-rule:evenodd;clip-rule:evenodd;fill:currentColor"/><rect id="_x32__1_" x="11.9" y="2" transform="matrix(-1 -1.931780e-10 1.931780e-10 -1 29.9172 10)" width="6.1" height="6" style="fill-rule:evenodd;clip-rule:evenodd;fill:currentColor"/></symbol><symbol id="dxre-AlignJustify" viewBox="0 0 18 18"><path id="_x32_" d="M0 0h18v2H0V0m0 4h18v2H0V4m0 4h18v2H0V8m0 4h18v2H0v-2m0 4h18v2H0v-2z" style="fill:currentColor"/></symbol><symbol id="dxre-AlignLeft" viewBox="0 0 18 18"><path id="_x32_" d="M0 0h18v2H0V0m0 4h10v2H0V4m0 4h18v2H0V8m0 4h10v2H0v-2m0 4h18v2H0v-2z" style="fill:currentColor"/></symbol><symbol id="dxre-AlignMiddleCenter" viewBox="0 0 18 18"><path id="_x33_" d="M2 0h14c1.1 0 2 .9 2 2v14c0 1.1-.9 2-2 2H2c-1.1 0-2-.9-2-2V2C0 .9.9 0 2 0z" style="opacity:.25;fill-rule:evenodd;clip-rule:evenodd;fill:currentColor"/><path id="_x32_" d="M14 10H4V8h10v2zm-2 4H6v-2h6v2zM6 4h6v2H6V4z" style="fill-rule:evenodd;clip-rule:evenodd;fill:currentColor"/></symbol><symbol id="dxre-AlignMiddleLeft" viewBox="0 0 18 18"><path id="_x33_" d="M2 0h14c1.1 0 2 .9 2 2v14c0 1.1-.9 2-2 2H2c-1.1 0-2-.9-2-2V2C0 .9.9 0 2 0z" style="opacity:.25;fill-rule:evenodd;clip-rule:evenodd;fill:currentColor"/><path id="_x32_" d="M12 10H2V8h10v2zm-4 4H2v-2h6v2zM2 4h6v2H2V4z" style="fill-rule:evenodd;clip-rule:evenodd;fill:currentColor"/></symbol><symbol id="dxre-AlignMiddleRight" viewBox="0 0 18 18"><path id="_x33_" d="M2 0h14c1.1 0 2 .9 2 2v14c0 1.1-.9 2-2 2H2c-1.1 0-2-.9-2-2V2C0 .9.9 0 2 0z" style="opacity:.25;fill-rule:evenodd;clip-rule:evenodd;fill:currentColor"/><path id="_x32_" d="M6 8h10v2H6V8zm4 4h6v2h-6v-2zm6-6h-6V4h6v2z" style="fill-rule:evenodd;clip-rule:evenodd;fill:currentColor"/></symbol><symbol id="dxre-AlignRight" viewBox="0 0 18 18"><path id="_x32_" d="M0 0h18v2H0V0m8 4h10v2H8V4M0 8h18v2H0V8m8 4h10v2H8v-2m-8 4h18v2H0v-2z" style="fill:currentColor"/></symbol><symbol id="dxre-AlignTableCellContent" viewBox="0 0 18 18"><path id="_x32_" d="M16 18H2c-1.1 0-2-.9-2-2V2C0 .9.9 0 2 0h14c1.1 0 2 .9 2 2v14c0 1.1-.9 2-2 2zm0-16H2v14h14V2zm-2 8H4V8h10v2zm-2 4H6v-2h6v2zM6 4h6v2H6V4z" style="fill-rule:evenodd;clip-rule:evenodd;fill:currentColor"/></symbol><symbol id="dxre-AlignTopCenter" viewBox="0 0 18 18"><path id="_x33_" d="M2 0h14c1.1 0 2 .9 2 2v14c0 1.1-.9 2-2 2H2c-1.1 0-2-.9-2-2V2C0 .9.9 0 2 0z" style="opacity:.25;fill-rule:evenodd;clip-rule:evenodd;fill:currentColor"/><path id="_x32_" d="M14 8H4V6h10v2zm-2 4H6v-2h6v2zM6 2h6v2H6V2z" style="fill-rule:evenodd;clip-rule:evenodd;fill:currentColor"/></symbol><symbol id="dxre-AlignTopLeft" viewBox="0 0 18 18"><path id="_x33_" d="M2 0h14c1.1 0 2 .9 2 2v14c0 1.1-.9 2-2 2H2c-1.1 0-2-.9-2-2V2C0 .9.9 0 2 0z" style="opacity:.25;fill-rule:evenodd;clip-rule:evenodd;fill:currentColor"/><path id="_x32_" d="M12 8H2V6h10v2zm-4 4H2v-2h6v2zM2 2h6v2H2V2z" style="fill-rule:evenodd;clip-rule:evenodd;fill:currentColor"/></symbol><symbol id="dxre-AlignTopRight" viewBox="0 0 18 18"><path id="_x33_" d="M2 0h14c1.1 0 2 .9 2 2v14c0 1.1-.9 2-2 2H2c-1.1 0-2-.9-2-2V2C0 .9.9 0 2 0z" style="opacity:.25;fill-rule:evenodd;clip-rule:evenodd;fill:currentColor"/><path id="_x32_" d="M6 6h10v2H6V6zm4 4h6v2h-6v-2zm6-6h-6V2h6v2z" style="fill-rule:evenodd;clip-rule:evenodd;fill:currentColor"/></symbol><symbol id="dxre-Bold" viewBox="0 0 18 18"><path id="_x32_" d="M10.5 11.5H6.9v-3h3.7c.8 0 1.5.7 1.5 1.5s-.7 1.5-1.6 1.5m-3.6-9h3.2c.8 0 1.5.7 1.5 1.5s-.7 1.5-1.5 1.5H6.9v-3zm5.8 4.3c1-.7 1.7-1.8 1.7-2.8 0-2.3-1.9-4-4.2-4H4v14h7.1c2.2 0 3.9-1.7 3.9-3.8 0-1.5-.9-2.8-2.3-3.4z" style="fill:currentColor"/></symbol><symbol id="dxre-Bookmark" viewBox="0 0 18 18"><path id="_x32_" d="M17 16c0 1.1-.9 2-2 2H3c-1.1 0-2-.9-2-2V3c0-1.1.9-2 2-2h2V0h5v1h5c1.1 0 2 .9 2 2v13zM10 3v7L7.5 7.8 5 10V3H3v13h12V3h-5z" style="fill-rule:evenodd;clip-rule:evenodd;fill:currentColor"/></symbol><symbol id="dxre-BorderBottom" viewBox="0 0 18 18"><path id="_x32_" d="M2 2H0C0 .9.9 0 2 0v2zm14 0V0c1.1 0 2 .9 2 2h-2zm-2 0h-2V0h2v2zm-4 0H8V0h2v2zM6 0v2H4V0h2zM2 4v2H0V4h2zm0 4v2H0V8h2zm-2 4h2v2H0v-2zm2-4v2-2zm6 4h2v2H8v-2zm4-2V8h2v2h-2zm-2 0H8V8h2v2zm-6 0V8h2v2H4zm4-6h2v2H8V4zm10 4v2h-2V8h2zm0-4v2h-2V4h2zm0 8v2h-2v-2h2z" style="opacity:.25;fill-rule:evenodd;clip-rule:evenodd;fill:currentColor"/><rect x="8" y="8" transform="matrix(-9.003991e-11 -1 1 -9.003991e-11 -8 26)" width="2" height="18" style="fill:currentColor"/></symbol><symbol id="dxre-BorderInsideHorizontal" viewBox="0 0 18 18"><path id="_x32_" d="M16 2V0c1.1 0 2 .9 2 2h-2zM2 2H0C0 .9.9 0 2 0v2zm0 14v2c-1.1 0-2-.9-2-2h2zm14 0h2c0 1.1-.9 2-2 2v-2zm0-2v-2h2v2h-2zm2-8h-2V4h2v2zm-4-4h-2V0h2v2zM6 0v2H4V0h2zm4 0v2H8V0h2zm0 4v2H8V4h2zm0 8v2H8v-2h2zm0 4v2H8v-2h2zM2 4v2H0V4h2zm12 14h-2v-2h2v2zm-8 0H4v-2h2v2zm-4-6v2H0v-2h2z" style="opacity:.25;fill-rule:evenodd;clip-rule:evenodd;fill:currentColor"/><path id="_x30_1" d="M18 10H0V8h18v2z" style="fill-rule:evenodd;clip-rule:evenodd;fill:currentColor"/></symbol><symbol id="dxre-BorderInsideVertical" viewBox="0 0 18 18"><path id="_x32_" d="M2 2H0C0 .9.9 0 2 0v2zm0 14v2c-1.1 0-2-.9-2-2h2zm14 0h2c0 1.1-.9 2-2 2v-2zm0-14V0c1.1 0 2 .9 2 2h-2zm-2 0h-2V0h2v2zM6 0v2H4V0h2zM2 4v2H0V4h2zm-2 8h2v2H0v-2zm0-4h2v2H0V8zm4 0h2v2H4V8zm8 0h2v2h-2V8zm4 0h2v2h-2V8zM4 16h2v2H4v-2zM18 4v2h-2V4h2zm0 8v2h-2v-2h2zm-6 4h2v2h-2v-2z" style="opacity:.25;fill-rule:evenodd;clip-rule:evenodd;fill:currentColor"/><path id="_x30_1" d="M10 0v18H8V0h2z" style="fill-rule:evenodd;clip-rule:evenodd;fill:currentColor"/></symbol><symbol id="dxre-BorderLeft" viewBox="0 0 18 18"><path id="_x32_" d="M16 2V0c1.1 0 2 .9 2 2h-2zm0 14h2c0 1.1-.9 2-2 2v-2zm0-2v-2h2v2h-2zm0-4V8h2v2h-2zm2-4h-2V4h2v2zm-4-4h-2V0h2v2zm-4 0H8V0h2v2zM6 0v2H4V0h2zm4 2H8h2zM6 8v2H4V8h2zm2 4h2v2H8v-2zm0-2V8h2v2H8zm0-6h2v2H8V4zm6 4v2h-2V8h2zm-4 10H8v-2h2v2zm4 0h-2v-2h2v2zm-8 0H4v-2h2v2z" style="opacity:.25;fill-rule:evenodd;clip-rule:evenodd;fill:currentColor"/><rect width="2" height="18" style="fill:currentColor"/></symbol><symbol id="dxre-BorderRight" viewBox="0 0 18 18"><path id="_x32_" d="M0 2C0 .9.9 0 2 0v2H0zm2 16c-1.1 0-2-.9-2-2h2v2zm-2-4v-2h2v2H0zm0-4V8h2v2H0zm0-6h2v2H0V4zm4-4h2v2H4V0zm4 0h2v2H8V0zm6 0v2h-2V0h2zM8 2h2-2zm6 6v2h-2V8h2zm-4 6H8v-2h2v2zm-2-4V8h2v2H8zm2-4H8V4h2v2zM6 8v2H4V8h2zm2 8h2v2H8v-2zm-4 0h2v2H4v-2zm8 0h2v2h-2v-2z" style="opacity:.25;fill-rule:evenodd;clip-rule:evenodd;fill:currentColor"/><rect x="16" y="0" transform="matrix(-1 -4.547486e-11 4.547486e-11 -1 34 18)" width="2" height="18" style="fill:currentColor"/></symbol><symbol id="dxre-BordersAll" viewBox="0 0 18 18"><path id="_x32_" d="M16 18H2c-1.1 0-2-.9-2-2V2C0 .9.9 0 2 0h14c1.1 0 2 .9 2 2v14c0 1.1-.9 2-2 2zm0-16H2v14h14V2zM8 2h2v6h6v2h-6v6H8v-6H2V8h6V2z" style="fill-rule:evenodd;clip-rule:evenodd;fill:currentColor"/></symbol><symbol id="dxre-BordersInside" viewBox="0 0 18 18"><path id="_x32_" d="M16 2V0c1.1 0 2 .9 2 2h-2zM2 2H0C0 .9.9 0 2 0v2zm0 14v2c-1.1 0-2-.9-2-2h2zm14 0h2c0 1.1-.9 2-2 2v-2zm0-2v-2h2v2h-2zm2-8h-2V4h2v2zm-4-4h-2V0h2v2zM6 0v2H4V0h2zM2 4v2H0V4h2zm12 14h-2v-2h2v2zm-8 0H4v-2h2v2zm-4-6v2H0v-2h2z" style="opacity:.25;fill-rule:evenodd;clip-rule:evenodd;fill:currentColor"/><path id="_x30_1" d="M18 10h-8v8H8v-8H0V8h8V0h2v8h8v2z" style="fill-rule:evenodd;clip-rule:evenodd;fill:currentColor"/></symbol><symbol id="dxre-BordersNone" viewBox="0 0 18 18"><path id="_x32_" d="M16 2V0c1.1 0 2 .9 2 2h-2zM2 2H0C0 .9.9 0 2 0v2zm0 14v2c-1.1 0-2-.9-2-2h2zm14 0h2c0 1.1-.9 2-2 2v-2zm0-2v-2h2v2h-2zm0-4V8h2v2h-2zm2-4h-2V4h2v2zm-4-4h-2V0h2v2zm-4 0H8V0h2v2zM6 0v2H4V0h2zM2 4v2H0V4h2zm0 4v2H0V8h2zm8-6H8h2zM2 8v2-2zm4 0v2H4V8h2zm2 4h2v2H8v-2zm0-2V8h2v2H8zm0-6h2v2H8V4zm6 4v2h-2V8h2zm-4 10H8v-2h2v2zm4 0h-2v-2h2v2zm-8 0H4v-2h2v2zm-4-6v2H0v-2h2z" style="opacity:.25;fill-rule:evenodd;clip-rule:evenodd;fill:currentColor"/></symbol><symbol id="dxre-BordersOutside" viewBox="0 0 18 18"><path id="_x32_" d="M10 4v2H8V4h2zM8 8h2v2H8V8zm4 0h2v2h-2V8zm-4 4h2v2H8v-2zM4 8h2v2H4V8z" style="opacity:.25;fill-rule:evenodd;clip-rule:evenodd;fill:currentColor"/><path id="_x30_1" d="M16 18H2c-1.1 0-2-.9-2-2V2C0 .9.9 0 2 0h14c1.1 0 2 .9 2 2v14c0 1.1-.9 2-2 2zm0-16H2v14h14V2z" style="fill-rule:evenodd;clip-rule:evenodd;fill:currentColor"/></symbol><symbol id="dxre-BorderTop" viewBox="0 0 18 18"><path id="_x32_" d="M2 18c-1.1 0-2-.9-2-2h2v2zm16-2c0 1.1-.9 2-2 2v-2h2zm-4 2h-2v-2h2v2zm-4 0H8v-2h2v2zm-6 0v-2h2v2H4zm-4-4v-2h2v2H0zm0-4V8h2v2H0zm0-6h2v2H0V4zm2 6V8v2zm6-6h2v2H8V4zm6 4v2h-2V8h2zm-4 2H8V8h2v2zM6 8v2H4V8h2zm2 4h2v2H8v-2zm8-2V8h2v2h-2zm0 4v-2h2v2h-2zm0-8V4h2v2h-2z" style="opacity:.25;fill-rule:evenodd;clip-rule:evenodd;fill:currentColor"/><rect x="8" y="-8" transform="matrix(-9.004016e-11 1 -1 -9.004016e-11 10 -8)" width="2" height="18" style="fill:currentColor"/></symbol><symbol id="dxre-ChangeTextCase" viewBox="0 0 18 18"><path id="_x32_" d="M4 2 0 14h1.9l1-3.1h4.3l1 3.1H10L6 2H4zm-.6 7.2 1.6-5h.1l1.6 5H3.4zm14.3 2.5v-4c0-.9-.3-1.6-.9-2.1s-1.3-.7-2.3-.7c-.6 0-1.2.1-1.7.4-.5.2-.9.5-1.2 1-.3.4-.5.8-.5 1.3h1.5c0-.4.2-.7.5-.9.4-.2.8-.4 1.3-.4.6 0 1 .1 1.3.4s.5.7.5 1.2v.7h-1.4c-1.2 0-2.2.2-2.8.7-.7.5-1 1.2-1 2.1 0 .7.3 1.4.8 1.8.5.5 1.2.7 2.1.7.9 0 1.7-.4 2.4-1.1.1.4.1.7.2.9H18v-.1c-.2-.5-.3-1.1-.3-1.9zm-1.4-.3c-.2.3-.5.6-.9.8s-.8.3-1.3.3-.9-.1-1.2-.4c-.3-.2-.5-.5-.5-1 0-1 .9-1.4 2.7-1.4h1.1v1.7h.1z" style="fill:currentColor"/></symbol><symbol id="dxre-ClearFormatting" viewBox="0 0 18 18"><path id="_x33_" d="M13.4 9.4 7.5 3.5 10.4.6c.8-.8 2.1-.8 2.9 0l3 3c.8.8.8 2.1 0 2.9l-2.9 2.9z" style="opacity:.3;fill-rule:evenodd;clip-rule:evenodd;fill:currentColor"/><path id="_x32_" d="M13.4 9.4 10 12.8c-1.6 1.6-4.6 1.6-6 .2l-2-2c-.8-.8-.2-1.8.6-2.7l4.9-4.9 5.9 6z" style="fill-rule:evenodd;clip-rule:evenodd;fill:currentColor"/></symbol><symbol id="dxre-CloseHeaderAndFooter" viewBox="0 0 18 18"><g id="_x32_"><g><path d="M9 1C4.6 1 1 4.6 1 9s3.6 8 8 8 8-3.6 8-8-3.6-8-8-8zm4 10.8L11.8 13 9 10.2 6.2 13 5 11.8 7.8 9 5 6.2 6.2 5 9 7.8 11.8 5 13 6.2 10.2 9l2.8 2.8z" style="fill-rule:evenodd;clip-rule:evenodd;fill:currentColor"/></g></g></symbol><symbol id="dxre-ColumnsOne" viewBox="0 0 18 18"><g id="_x32_"><g><path d="M0 0v2h18V0H0zm0 6h18V4H0v2zm0 4h18V8H0v2zm0 4h18v-2H0v2zm0 4h18v-2H0v2z" style="fill:currentColor"/></g></g></symbol><symbol id="dxre-ColumnsThree" viewBox="0 0 18 18"><g id="_x32_"><g><path d="M0 2h4V0H0v2zm6 0h6V0H6v2zM0 6h4V4H0v2zm6 0h6V4H6v2zm-6 4h4V8H0v2zm6 0h6V8H6v2zm-6 4h4v-2H0v2zm6 0h6v-2H6v2zm-6 4h4v-2H0v2zm6 0h6v-2H6v2zm8-18v2h4V0h-4zm0 6h4V4h-4v2zm0 4h4V8h-4v2zm0 4h4v-2h-4v2zm0 4h4v-2h-4v2z" style="fill:currentColor"/></g></g></symbol><symbol id="dxre-ColumnsTwo" viewBox="0 0 18 18"><g id="_x32_"><g><path d="M0 2h8V0H0v2zm10-2v2h8V0h-8zM0 6h8V4H0v2zm10 0h8V4h-8v2zM0 10h8V8H0v2zm10 0h8V8h-8v2zM0 14h8v-2H0v2zm10 0h8v-2h-8v2zM0 18h8v-2H0v2zm10 0h8v-2h-8v2z" style="fill:currentColor"/></g></g></symbol><symbol id="dxre-Copy" viewBox="0 0 18 18"><path id="_x32_" d="M4 14h7V5H4m0-2h7c1.1 0 2 .9 2 2v9c0 1.1-.9 2-2 2H4c-1.1 0-2-.9-2-2V5c0-1.1.9-2 2-2m2-3h8c1.1 0 2 .9 2 2v10h-2V2H6V0z" style="fill:currentColor"/></symbol><symbol id="dxre-Cut" viewBox="0 0 18 18"><path id="_x32_" d="m6.6 7.2 1.6-1.6-4-5.6h-.8l3.2 7.2zm8.8 5.6c0 .9-.7 1.6-1.6 1.6-.9 0-1.6-.7-1.6-1.6s.7-1.6 1.6-1.6 1.6.7 1.6 1.6m-9.6 0c0 .9-.7 1.6-1.6 1.6s-1.6-.7-1.6-1.6.7-1.6 1.6-1.6 1.6.7 1.6 1.6m-.3-2.9c-.4-.2-.8-.3-1.3-.3C2.4 9.6 1 11 1 12.8S2.4 16 4.2 16s3.2-1.4 3.2-3.2c0-.5-.1-.9-.3-1.3L9 9.6l1.9 1.9c-.2.4-.3.8-.3 1.3 0 1.8 1.4 3.2 3.2 3.2s3.2-1.4 3.2-3.2-1.4-3.2-3.2-3.2c-.5 0-.9.1-1.3.3L10.6 8l4-8h-.8L5.5 9.9z" style="fill:currentColor"/></symbol><symbol id="dxre-DeleteTable" viewBox="0 0 18 18"><path id="_x32_" d="M18 16.8 16.8 18l-2.3-2.3-2.3 2.3-1.2-1.2 2.3-2.3-2.3-2.3 1.2-1.2 2.3 2.3 2.3-2.3 1.2 1.2-2.3 2.3 2.3 2.3zM12 6h4v3h-4V6zm0-5h4v3h-4V1zM6 11h4v3H6v-3zm0-5h4v3H6V6zm0-5h4v3H6V1zM0 11h4v3H0v-3zm0-5h4v3H0V6zm0-5h4v3H0V1z" style="fill-rule:evenodd;clip-rule:evenodd;fill:currentColor"/></symbol><symbol id="dxre-DeleteTableCells" viewBox="0 0 18 18"><path id="_x33_" d="M18 16.8 16.8 18l-2.3-2.3-2.3 2.3-1.2-1.2 2.3-2.3-2.3-2.3 1.2-1.2 2.3 2.3 2.3-2.3 1.2 1.2-2.3 2.3 2.3 2.3zM6 6h4v3H6V6z" style="fill-rule:evenodd;clip-rule:evenodd;fill:currentColor"/><path id="_x32_" d="M12 9V6h4v3h-4zm0-8h4v3h-4V1zM6 1h4v3H6V1zM0 11h4v3H0v-3zm6 0h4v3H6v-3zM0 6h4v3H0V6zm0-5h4v3H0V1z" style="opacity:.25;fill-rule:evenodd;clip-rule:evenodd;fill:currentColor"/></symbol><symbol id="dxre-DeleteTableColumns" viewBox="0 0 18 18"><path id="_x33_" d="M18 16.8 16.8 18l-2.3-2.3-2.3 2.3-1.2-1.2 2.3-2.3-2.3-2.3 1.2-1.2 2.3 2.3 2.3-2.3 1.2 1.2-2.3 2.3 2.3 2.3zM6 1h4v13H6V1z" style="fill-rule:evenodd;clip-rule:evenodd;fill:currentColor"/><path id="_x32_" d="M12 9V6h4v3h-4zm0-8h4v3h-4V1zM0 11h4v3H0v-3zm0-5h4v3H0V6zm0-5h4v3H0V1z" style="opacity:.25;fill-rule:evenodd;clip-rule:evenodd;fill:currentColor"/></symbol><symbol id="dxre-DeleteTableRows" viewBox="0 0 18 18"><path id="_x33_" d="M18 16.8 16.8 18l-2.3-2.3-2.3 2.3-1.2-1.2 2.3-2.3-2.3-2.3 1.2-1.2 2.3 2.3 2.3-2.3 1.2 1.2-2.3 2.3 2.3 2.3zM0 6h16v3H0V6z" style="fill-rule:evenodd;clip-rule:evenodd;fill:currentColor"/><path id="_x32_" d="M6 14v-3h4v3H6zm6-13h4v3h-4V1zM0 11h4v3H0v-3zM6 1h4v3H6V1zM0 1h4v3H0V1z" style="opacity:.25;fill-rule:evenodd;clip-rule:evenodd;fill:currentColor"/></symbol><symbol id="dxre-DifferentFirstPage" viewBox="0 0 18 18"><path id="_x30_1" d="M8 18H1c-.6 0-1-.4-1-1V9c0-.6.4-1 1-1h7c.6 0 1 .4 1 1v8c0 .6-.4 1-1 1zm-5-5.9v.8h1V15h1v-4h-.9" style="fill-rule:evenodd;clip-rule:evenodd;fill:currentColor"/><path id="_x30_2" d="M12 14H9V9H4V5c0-.6.4-1 1-1h7c.6 0 1 .4 1 1v8c0 .6-.4 1-1 1z" style="opacity:.5;fill-rule:evenodd;clip-rule:evenodd;fill:currentColor"/><path id="_x30_3" d="M16 10h-3V4H8V1c0-.6.4-1 1-1h7c.6 0 1 .4 1 1v8c0 .6-.4 1-1 1z" style="opacity:.25;fill-rule:evenodd;clip-rule:evenodd;fill:currentColor"/></symbol><symbol id="dxre-DifferentOddEvenPages" viewBox="0 0 18 18"><g id="_x32_" style="opacity:.5;fill:currentColor"><g><path d="M16 0H9c-.6 0-1 .4-1 1v4h5v5h3c.6 0 1-.4 1-1V1c0-.6-.4-1-1-1zM8 8H1c-.6 0-1 .4-1 1v8c0 .6.4 1 1 1h7c.6 0 1-.4 1-1V9c0-.6-.4-1-1-1z" style="fill-rule:evenodd;clip-rule:evenodd;fill:currentColor"/></g></g><path id="_x33_" d="M12 14H9v-2h2V6H6v2H4V5c0-.6.4-1 1-1h7c.6 0 1 .4 1 1v8c0 .6-.4 1-1 1z" style="fill-rule:evenodd;clip-rule:evenodd;fill:currentColor"/></symbol><symbol id="dxre-Download" viewBox="0 0 18 18"><path id="_x32_" d="M2 16h14v-2H2v2zM16 6h-4V0H6v6H2l7 6 7-6z" style="fill:currentColor"/></symbol><symbol id="dxre-First" viewBox="0 0 18 18"><path id="_x32_" d="M5 3H3v12h2M15 3 6.5 9l8.5 6V3z"/></symbol><symbol id="dxre-FloatingObjectBringForward" viewBox="0 0 18 18"><path id="_x33_" d="M13 18H1c-.6 0-1-.4-1-1V5c0-.6.4-1 1-1h12c.6 0 1 .4 1 1v12c0 .6-.4 1-1 1zM12 6H2v10h10V6z" style="fill-rule:evenodd;clip-rule:evenodd;fill:currentColor"/><path id="_x32_" d="M17 14h-3v-2h2V2H6v2H4V1c0-.6.4-1 1-1h12c.6 0 1 .4 1 1v12c0 .6-.4 1-1 1z" style="opacity:.25;fill-rule:evenodd;clip-rule:evenodd;fill:currentColor"/></symbol><symbol id="dxre-FloatingObjectBringInFrontOfText" viewBox="0 0 18 18"><g id="_x35_"><g><path d="M9 8H1c-.6 0-1 .4-1 1v8c0 .6.4 1 1 1h8c.6 0 1-.4 1-1V9c0-.6-.4-1-1-1zm-1 8H2v-6h6v6z" style="fill-rule:evenodd;clip-rule:evenodd;fill:currentColor"/></g></g><g id="_x32_" style="opacity:.25;fill:currentColor"><g><path d="M17 0H5c-.6 0-1 .4-1 1v9h2V2h10v10H8v2h9c.6 0 1-.4 1-1V1c0-.6-.4-1-1-1zm-3 10V8h-2v2h2zm0-6H8v2h6V4z" style="fill-rule:evenodd;clip-rule:evenodd;fill:currentColor"/></g></g></symbol><symbol id="dxre-FloatingObjectBringToFront" viewBox="0 0 18 18"><g id="_x35_" style="opacity:.25;fill:currentColor"><g><path d="M17 0h-6c-.6 0-1 .4-1 1v3h2V2h4v4h-2v2h3c.6 0 1-.4 1-1V1c0-.6-.4-1-1-1zM6 16H2v-4h2v-2H1c-.6 0-1 .4-1 1v6c0 .6.4 1 1 1h6c.6 0 1-.4 1-1v-3H6v2z" style="fill-rule:evenodd;clip-rule:evenodd;fill:currentColor"/></g></g><g id="_x32_"><g><path d="M13 4H5c-.6 0-1 .4-1 1v8c0 .6.4 1 1 1h8c.6 0 1-.4 1-1V5c0-.6-.4-1-1-1zm-1 8H6V6h6v6z" style="fill-rule:evenodd;clip-rule:evenodd;fill:currentColor"/></g></g></symbol><symbol id="dxre-FloatingObjectSendBackward" viewBox="0 0 18 18"><path id="_x33_" d="M13 18H1c-.6 0-1-.4-1-1V5c0-.6.4-1 1-1h12c.6 0 1 .4 1 1v12c0 .6-.4 1-1 1zM12 6H2v10h10V6z" style="opacity:.25;fill-rule:evenodd;clip-rule:evenodd;fill:currentColor"/><path id="_x32_" d="M17 14h-3v-2h2V2H6v2H4V1c0-.6.4-1 1-1h12c.6 0 1 .4 1 1v12c0 .6-.4 1-1 1z" style="fill-rule:evenodd;clip-rule:evenodd;fill:currentColor"/></symbol><symbol id="dxre-FloatingObjectSendBehindText" viewBox="0 0 18 18"><path id="_x33_" d="M17 14H5c-.6 0-1-.4-1-1V1c0-.6.4-1 1-1h12c.6 0 1 .4 1 1v12c0 .6-.4 1-1 1zM16 2H6v10h10V2zM8 8h6v2H8V8zm0-4h6v2H8V4z" style="fill-rule:evenodd;clip-rule:evenodd;fill:currentColor"/><path id="_x32_" d="M4 10H2v6h6v-2h2v3c0 .6-.4 1-1 1H1c-.6 0-1-.4-1-1V9c0-.6.4-1 1-1h3v2z" style="opacity:.25;fill-rule:evenodd;clip-rule:evenodd;fill:currentColor"/></symbol><symbol id="dxre-FloatingObjectSendToBack" viewBox="0 0 18 18"><path id="_x33_" d="M17 8h-6c-.6 0-1-.4-1-1V1c0-.6.4-1 1-1h6c.6 0 1 .4 1 1v6c0 .6-.4 1-1 1zm-1-6h-4v4h4V2zM7 18H1c-.6 0-1-.4-1-1v-6c0-.6.4-1 1-1h6c.6 0 1 .4 1 1v6c0 .6-.4 1-1 1zm-1-6H2v4h4v-4z" style="fill-rule:evenodd;clip-rule:evenodd;fill:currentColor"/><path id="_x32_" d="M13 14H8v-2h4V8h2v5c0 .6-.4 1-1 1zm-7-4H4V5c0-.6.4-1 1-1h5v2H6v4z" style="opacity:.25;fill-rule:evenodd;clip-rule:evenodd;fill:currentColor"/></symbol><symbol id="dxre-Font" viewBox="0 0 18 18"><path id="_x32_" d="M2 14h2.4l1.3-3.6h5.6l1.3 3.6H15L9.7 0H7.2L2 14zm4.4-5.6 2-5.8h.1l2 5.8H6.4z" style="fill:currentColor"/></symbol><symbol id="dxre-FontColor" viewBox="0 0 18 18"><path id="_x32_" d="M2 14h2.4l1.3-3.6h5.6l1.3 3.6H15L9.7 0H7.2L2 14zm4.4-5.6 2-5.8h.1l2 5.8H6.4z" style="fill:currentColor"/></symbol><symbol id="dxre-FontSizeDecrease" viewBox="0 0 18 18"><path id="_x32_" d="M6 2 2 14h1.9l1-3.1h4.3l1 3.1H12L8 2H6zm-.6 7.2 1.6-5 1.6 5H5.4zM17 2l-1 1V0h-2v3l-1-1-1 1 3 3 3-3-1-1z" style="fill:currentColor"/></symbol><symbol id="dxre-FontSizeIncrease" viewBox="0 0 18 18"><path id="_x32_" d="M5.3 0 0 14h2.4l1.3-3.6h5.6l1.3 3.6H13L7.8 0H5.3zm-.9 8.4 2-5.8h.1l2 5.8H4.4zM15 0l-3 3 1 1 1-1v3h2V3l1 1 1-1-3-3z" style="fill:currentColor"/></symbol><symbol id="dxre-Footer" viewBox="0 0 18 18"><path id="_x36_" d="M16 4v10c0 1.1-.9 2-2 2H4c-1.1 0-2-.9-2-2V4c0-1.1.9-2 2-2h10c1.1 0 2 .9 2 2zm-2 0H4v10h10V4zm-9 7h8v2H5v-2z" style="fill-rule:evenodd;clip-rule:evenodd;fill:currentColor"/><g id="_x32_" style="opacity:.5;fill:currentColor"><g><path d="M13 10V9H5v1h8zM5 8h8V7H5v1zm0-2h8V5H5v1z" style="fill:currentColor"/></g></g></symbol><symbol id="dxre-FullScreen" viewBox="0 0 18 18"><path id="_x33_" d="M16 16h-5v-2h3v-3h2v5zM14 4h-3V2h5v5h-2V4zM4 4v3H2V2h5v2H4zm0 10h3v2H2v-5h2v3z" style="fill-rule:evenodd;clip-rule:evenodd;fill:currentColor"/></symbol><symbol id="dxre-GoToFooter" viewBox="0 0 18 18"><path id="_x33_" d="M4 8h8v2H4V8zm0-4h8v2H4V4zm0 12H2c-1.1 0-2-.9-2-2V2C0 .9.9 0 2 0h12c1.1 0 2 .9 2 2v10h-2V2H2v12h2v2z" style="opacity:.25;fill-rule:evenodd;clip-rule:evenodd;fill:currentColor"/><path id="_x32_" d="M18 12v4c0 1.1-.9 2-2 2H6c-1.1 0-2-.9-2-2v-4h14zm-2 2H6v2h10v-2z" style="fill-rule:evenodd;clip-rule:evenodd;fill:currentColor"/></symbol><symbol id="dxre-GoToHeader" viewBox="0 0 18 18"><path id="_x33_" d="M4 8h8v2H4V8zm0 4h8v2H4v-2zm0-8H2v12h12V6h2v10c0 1.1-.9 2-2 2H2c-1.1 0-2-.9-2-2V4c0-1.1.9-2 2-2h2v2z" style="opacity:.25;fill-rule:evenodd;clip-rule:evenodd;fill:currentColor"/><path id="_x32_" d="M4 6V2c0-1.1.9-2 2-2h10c1.1 0 2 .9 2 2v4H4zm12-4H6v2h10V2z" style="fill-rule:evenodd;clip-rule:evenodd;fill:currentColor"/></symbol><symbol id="dxre-GoToNextHeaderFooter" viewBox="0 0 18 18"><path id="_x37_" d="M4 6V2c0-1.1.9-2 2-2h10c1.1 0 2 .9 2 2v4H4zm12-4H6v2h10V2zm-4 7 4 4-4 4V9z" style="fill-rule:evenodd;clip-rule:evenodd;fill:currentColor"/><g id="_x32_"><path id="_x36_" d="M2 4h2V2H2C.9 2 0 2.9 0 4v12c0 1.1.9 2 2 2h8v-2H2V4z" style="opacity:.25;fill:currentColor"/><rect id="_x35_" x="4" y="12" width="6" height="2" style="opacity:.25;fill:currentColor"/><rect id="_x34_" x="4" y="8" width="6" height="2" style="opacity:.25;fill:currentColor"/><rect id="_x33_" x="12" y="6" width="2" height="2" style="opacity:.25;fill:currentColor"/></g></symbol><symbol id="dxre-GoToPreviousHeaderFooter" viewBox="0 0 18 18"><path id="_x37_" d="M4 6V2c0-1.1.9-2 2-2h10c1.1 0 2 .9 2 2v4H4zm12-4H6v2h10V2zm0 15-4-4 4-4v8z" style="fill-rule:evenodd;clip-rule:evenodd;fill:currentColor"/><g id="_x32_"><path id="_x36_" d="M2 4h2V2H2C.9 2 0 2.9 0 4v12c0 1.1.9 2 2 2h8v-2H2V4z" style="opacity:.25;fill:currentColor"/><rect id="_x35_" x="4" y="12" width="6" height="2" style="opacity:.25;fill:currentColor"/><rect id="_x34_" x="4" y="8" width="6" height="2" style="opacity:.25;fill:currentColor"/><rect id="_x33_" x="12" y="6" width="2" height="2" style="opacity:.25;fill:currentColor"/></g></symbol><symbol id="dxre-Header" viewBox="0 0 18 18"><path id="_x36_" d="M14 16H4c-1.1 0-2-.9-2-2V4c0-1.1.9-2 2-2h10c1.1 0 2 .9 2 2v10c0 1.1-.9 2-2 2zm0-12H4v10h10V4zM5 5h8v2H5V5z" style="fill-rule:evenodd;clip-rule:evenodd;fill:currentColor"/><g id="_x32_" style="opacity:.5;fill:currentColor"><g><path d="M5 8v1h8V8H5zm0 3h8v-1H5v1zm0 2h8v-1H5v1z" style="fill:currentColor"/></g></g></symbol><symbol id="dxre-Highlight" viewBox="0 0 18 18"><path id="_x32_" d="m1 14 2.8-2.8c-.6-.6-.6-1.6 0-2.2l3.8-3.9L12 9.5l-3.8 3.9c-.6.6-1.5.6-2.1 0l-.8.6H1M12.2.5c.6-.6 1.6-.6 2.2 0l2.2 2.2c.6.6.6 1.6 0 2.2l-3.4 3.4-4.4-4.4L12.2.5z" style="fill:currentColor"/></symbol><symbol id="dxre-Hyperlink" viewBox="0 0 18 18"><path id="_x32_" d="M5.1 4h3v2h-3c-1.7 0-3 1.3-3 3s1.3 3 3 3h3v2h-3c-2.8 0-5-2.2-5-5s2.2-5 5-5m8 0c2.8 0 5 2.2 5 5h-2c0-1.7-1.3-3-3-3h-3V4h3m-7 4h6v2h-6V8m7 1h2v3h3v2h-3v3h-2v-3h-3v-2h3V9z" style="fill:currentColor"/></symbol><symbol id="dxre-IndentDecrease" viewBox="0 0 18 18"><path id="_x32_" d="M8 10h10V8H8m0-2h10V4H8M0 0v2h18V0M0 18h18v-2H0m0-7 4 4V5m4 9h10v-2H8v2z" style="fill:currentColor"/></symbol><symbol id="dxre-IndentIncrease" viewBox="0 0 18 18"><path id="_x32_" d="M10 8H0v2h10m0-6H0v2h10M0 0v2h18V0m0 16H0v2h18M14 5v8l4-4m-8 3H0v2h10v-2z" style="fill:currentColor"/></symbol><symbol id="dxre-InsertCaption" viewBox="0 0 18 18"><path id="_x34_" d="M6 14v-2h8v2H6zm10 4H4c-1.1 0-2-.9-2-2v-1h2v1h12V2H4v5H2V2c0-1.1.9-2 2-2h12c1.1 0 2 .9 2 2v14c0 1.1-.9 2-2 2zM2 8l3 3-3 3v-2H0v-2h2V8z" style="fill-rule:evenodd;clip-rule:evenodd;fill:currentColor"/><g id="_x32_" style="opacity:.5;fill:currentColor"><path id="_x33_" d="M6 4h8v6H6V4z" style="fill-rule:evenodd;clip-rule:evenodd;fill:currentColor"/></g></symbol><symbol id="dxre-InsertColumnBreak" viewBox="0 0 18 18"><g id="_x32_"><g><path d="m1 18 5-4-5-4v8zM13 0H3C1.9 0 1 .9 1 2v6h2V2h9l3 3v11H7v2h8c1.1 0 2-.9 2-2V4l-4-4zm0 5H5v3h8V5zm-5 8h5v-3H5l3 3z" style="fill:currentColor"/></g></g></symbol><symbol id="dxre-InsertDataField" viewBox="0 0 18 18"><g id="_x32_" style="opacity:.5;fill:currentColor"><g id="_x32__1_"><path id="_x33_" d="M1 14h7v-2H1v2zm9-2v2h7v-2h-7zm-9 6h7v-2H1v2zm9 0h7v-2h-7v2z" style="fill:currentColor"/></g></g><path id="_x31__1_" d="M15 0H3C1.9 0 1 .9 1 2v6c0 1.1.9 2 2 2h12c1.1 0 2-.9 2-2V2c0-1.1-.9-2-2-2zm-2 6h-3v3H8V6H5V4h3V1h2v3h3v2z" style="fill:currentColor"/></symbol><symbol id="dxre-InsertEquationCaption" viewBox="0 0 18 18"><g><path d="M9 5.5h1.5l-.3 1.2H8.7l-1.5 5.9c-.7 5.4-9.2 3-5 .9.8-.2 1.1.8 1.8 1 1.1 0 1.9-7.1 2.3-7.8H5.1l.2-1.2h1.2c.1-2.8 3.9-4.6 6.1-2.8 1 1.9-1.6 2.4-2.4.9-1-.4-1.1 1.2-1.2 1.9zm2.7 4.8.9 1.8c.9-1.2 1.7-2.5 3-1.7.5.4.2 1.1-.4 1.3-.1 0-.8.1-.9.1-.7.3-.6.5-1.3 1.3.5 1 1.1 2.5 2.2 1.3l.7.7c-1.6 1.5-3.7.9-4.3-1.1-.7 1.1-1.7 2.3-3.1 1.8-.5-.3-.5-1.2.1-1.4 1.1-.1 1.8-.4 2.4-1.6l-.5-1.2h-.9l.2-1c.7.1 1.2-.5 1.9-.3z" style="fill:currentColor"/></g></symbol><symbol id="dxre-InsertFigureCaption" viewBox="0 0 18 18"><path id="_x32_" d="M15 16H3c-1.1 0-2-.9-2-2V4c0-1.1.9-2 2-2h12c1.1 0 2 .9 2 2v10c0 1.1-.9 2-2 2zm0-12H3v10h12V4zm-4 9H4v-3l2-2 5 5zm0-3 3 3h-2l-2-2 1-1zm.5-2c-.8 0-1.5-.7-1.5-1.5S10.7 5 11.5 5s1.5.7 1.5 1.5S12.3 8 11.5 8z" style="fill-rule:evenodd;clip-rule:evenodd;fill:currentColor"/></symbol><symbol id="dxre-InsertImage" viewBox="0 0 18 18"><path id="_x32_" d="M15 16H3c-1.1 0-2-.9-2-2V4c0-1.1.9-2 2-2h12c1.1 0 2 .9 2 2v10c0 1.1-.9 2-2 2zm0-12H3v10h12V4zm-4 9H4v-3l2-2 5 5zm0-3 3 3h-2l-2-2 1-1zm.5-2c-.8 0-1.5-.7-1.5-1.5S10.7 5 11.5 5s1.5.7 1.5 1.5S12.3 8 11.5 8z" style="fill-rule:evenodd;clip-rule:evenodd;fill:currentColor"/></symbol><symbol id="dxre-InsertMergeField" viewBox="0 0 18 18"><path id="_x32_" d="M10 8H8v3h3V9l4 3-4 3v-2H6V8H4c-1.1 0-2-.9-2-2V4c0-1.1.9-2 2-2h6c1.1 0 2 .9 2 2v2c0 1.1-.9 2-2 2zm0-4H4v2h6V4z" style="fill-rule:evenodd;clip-rule:evenodd;fill:currentColor"/><path id="_x31__00000171708906967162847880000014879589834406947991_" d="M16 18h-6c-1.1 0-2-.9-2-2v-1h2v1h6V8h-2V6h2c1.1 0 2 .9 2 2v8c0 1.1-.9 2-2 2z" style="opacity:.35;fill-rule:evenodd;clip-rule:evenodd;fill:currentColor"/></symbol><symbol id="dxre-InsertPageBreak" viewBox="0 0 18 18"><g id="_x32_"><g><path d="m0 12 3-3-3-3v6zm6-2c-1.1 0-2 .9-2 2v6h2v-6h5.9l.1 4h4v2h2v-3l-5-5H6zM16 0v6H6V0H4v6c0 1.1.9 2 2 2h10c1.1 0 2-.9 2-2V0h-2z" style="fill:currentColor"/></g></g></symbol><symbol id="dxre-InsertPageCount" viewBox="0 0 18 18"><g id="_x32_"><g><path d="M5.8 12.2h2l.5-2.3h-2l-.5 2.3zM16 0H5v2h11v10h2V2c0-1.1-.9-2-2-2zm-4 4H2C.9 4 0 4.9 0 6v10c0 1.1.9 2 2 2h10c1.1 0 2-.9 2-2V6c0-1.1-.9-2-2-2zm-.3 5.9H10l-.5 2.3h1.8l-.3 1.6H9.3L8.5 16H6.7l.6-2.2h-2L4.8 16H3l.6-2.2H2l.3-1.6H4l.5-2.3H2.7L3 8.3h1.8L5.5 6h1.8l-.7 2.3h2L9.3 6H11l-.7 2.3H12l-.3 1.6z" style="fill:currentColor"/></g></g></symbol><symbol id="dxre-InsertPageNumber" viewBox="0 0 18 18"><path id="_x32_" d="M7.8 10.2h2l.5-2.3h-2l-.5 2.3zM14 2H4c-1.1 0-2 .9-2 2v10c0 1.1.9 2 2 2h10c1.1 0 2-.9 2-2V4c0-1.1-.9-2-2-2zm-.3 5.9H12l-.5 2.3h1.8l-.3 1.6h-1.7l-.8 2.2H8.7l.6-2.2h-2L6.8 14H5l.6-2.2H4l.3-1.6H6l.5-2.3H4.7L5 6.3h1.8L7.5 4h1.8l-.7 2.3h2l.7-2.3H13l-.7 2.3H14l-.3 1.6z" style="fill:currentColor"/></symbol><symbol id="dxre-InsertSectionBreakEvenPage" viewBox="0 0 18 18"><g id="_x32_" style="opacity:.5;fill:currentColor"><g><path d="M16 0v6H6V0H4v6c0 1.1.9 2 2 2h10c1.1 0 2-.9 2-2V0h-2zm0 10H6c-1.1 0-2 .9-2 2v6h2v-6h10v6h2v-6c0-1.1-.9-2-2-2z" style="fill:currentColor"/></g></g><path id="_x35_" d="M3 9 0 6v6l3-3z" style="fill-rule:evenodd;clip-rule:evenodd;fill:currentColor"/><path d="M11 18v-2H8v-3h2v2h1v-2h2v5h-2zM9 5V3c0-1.1 0-1 2-1V1H9V0h2c2 0 2 0 2 1v1c0 1.1 0 1-2 1v1h2v1H9z" style="fill-rule:evenodd;clip-rule:evenodd;fill:currentColor"/></symbol><symbol id="dxre-InsertSectionBreakNextPage" viewBox="0 0 18 18"><g id="_x32_"><g><path d="m0 12 3-3-3-3v6zM16 0v6H6V0H4v6c0 1.1.9 2 2 2h10c1.1 0 2-.9 2-2V0h-2zm0 10H6c-1.1 0-2 .9-2 2v6h2v-6h10v6h2v-6c0-1.1-.9-2-2-2z" style="fill:currentColor"/></g></g><rect id="_x33__2_" x="8" y="0" width="6" height="2" style="fill:currentColor"/><rect id="_x32__2_" x="8" y="16" width="6" height="2" style="fill:currentColor"/></symbol><symbol id="dxre-InsertSectionBreakOddPage" viewBox="0 0 18 18"><g id="_x32_" style="opacity:.5;fill:currentColor"><g><path d="M16 0v6H6V0H4v6c0 1.1.9 2 2 2h10c1.1 0 2-.9 2-2V0h-2zm0 10H6c-1.1 0-2 .9-2 2v6h2v-6h10v6h2v-6c0-1.1-.9-2-2-2z" style="fill:currentColor"/></g></g><path id="_x35_" d="M3 9 0 6v6l3-3z" style="fill-rule:evenodd;clip-rule:evenodd;fill:currentColor"/><path id="_x31__1_" d="M13 16.5v.5c0 1.1-.5 1-2 1H9v-1h2v-1h-1v-1h1v-1H9v-1h2c1.5 0 2-.1 2 1v.5c0 1 0 1-1 1 1 0 1 .5 1 1zM10 1H9V0h3v5h-2V1z" style="fill-rule:evenodd;clip-rule:evenodd;fill:currentColor"/></symbol><symbol id="dxre-InsertTable" viewBox="0 0 18 18"><path id="_x32_" d="M13 15v-3h4v3h-4zm0-8h4v3h-4V7zm0-5h4v3h-4V2zM7 12h4v3H7v-3zm0-5h4v3H7V7zm0-5h4v3H7V2zM1 12h4v3H1v-3zm0-5h4v3H1V7zm0-5h4v3H1V2z" style="fill-rule:evenodd;clip-rule:evenodd;fill:currentColor"/></symbol><symbol id="dxre-InsertTableCaption" viewBox="0 0 18 18"><path id="_x33_" d="M1 7h4v4H1V7zm0 6h4v4H1v-4zm6-6h4v4H7V7zm0 6h4v4H7v-4zm6-6h4v4h-4V7zm0 6h4v4h-4v-4z" style="opacity:.5;fill:currentColor"/><path id="_x32_" d="M1 5V3c0-1.1.9-2 2-2h12c1.1 0 2 .9 2 2v2H1z" style="fill-rule:evenodd;clip-rule:evenodd;fill:currentColor"/></symbol><symbol id="dxre-InsertTableColumnsToTheLeft" viewBox="0 0 18 18"><path id="_x33_" d="M18 5h-4V1h4v4zM2 5V1h4v4H2zm12 6V7h4v4h-4zm0 6v-4h4v4h-4zM2 17v-4h4v4H2z" style="opacity:.25;fill-rule:evenodd;clip-rule:evenodd;fill:currentColor"/><path id="_x32_" d="M12 17H8V1h4v16zM6 8v2H4v2L0 9l4-3v2h2z" style="fill-rule:evenodd;clip-rule:evenodd;fill:currentColor"/></symbol><symbol id="dxre-InsertTableColumnsToTheRight" viewBox="0 0 18 18"><path id="_x33_" d="M0 13h4v4H0v-4zm16 0v4h-4v-4h4zM4 7v4H0V7h4zm0-6v4H0V1h4zm12 0v4h-4V1h4z" style="opacity:.25;fill-rule:evenodd;clip-rule:evenodd;fill:currentColor"/><path id="_x32_" d="M6 1h4v16H6V1zm6 9V8h2V6l4 3-4 3v-2h-2z" style="fill-rule:evenodd;clip-rule:evenodd;fill:currentColor"/></symbol><symbol id="dxre-InsertTableOfCaptions" viewBox="0 0 18 18"><path id="_x33_" d="M16 18H4c-1.1 0-2-.9-2-2v-4H0v-2h2V2c0-1.1.9-2 2-2h12c1.1 0 2 .9 2 2v14c0 1.1-.9 2-2 2zm0-16H4v8h2V8l3 3-3 3v-2H4v4h12V2zM6 4h8v2H6V4z" style="fill-rule:evenodd;clip-rule:evenodd;fill:currentColor"/><path id="_x32_" d="M10 14v-2h4v2h-4zm0-6h4v2h-4V8z" style="opacity:.5;fill:currentColor"/></symbol><symbol id="dxre-InsertTableOfContents" viewBox="0 0 18 18"><path id="_x32_" d="M16 0H2C.9 0 0 .9 0 2v14c0 1.1.9 2 2 2h14c1.1 0 2-.9 2-2V2c0-1.1-.9-2-2-2zm0 16H2V2h14v14zM8 6H4V4h4v2zm0 4H4V8h4v2zm0 4H4v-2h4v2zm6-8h-4V4h4v2zm0 4h-4V8h4v2zm0 4h-4v-2h4v2z" style="fill-rule:evenodd;clip-rule:evenodd;fill:currentColor"/></symbol><symbol id="dxre-InsertTableOfEquations" viewBox="0 0 18 18"><g><path d="M9 5.5h1.5l-.3 1.2H8.7l-1.5 5.9c-.7 5.4-9.2 3-5 .9.8-.2 1.1.8 1.8 1 1.1 0 1.9-7.1 2.3-7.8H5.1l.2-1.2h1.2c.1-2.8 3.9-4.6 6.1-2.8 1 1.9-1.6 2.4-2.4.9-1-.4-1.1 1.2-1.2 1.9zm2.7 4.8.9 1.8c.9-1.2 1.7-2.5 3-1.7.5.4.2 1.1-.4 1.3-.1 0-.8.1-.9.1-.7.3-.6.5-1.3 1.3.5 1 1.1 2.5 2.2 1.3l.7.7c-1.6 1.5-3.7.9-4.3-1.1-.7 1.1-1.7 2.3-3.1 1.8-.5-.3-.5-1.2.1-1.4 1.1-.1 1.8-.4 2.4-1.6l-.5-1.2h-.9l.2-1c.7.1 1.2-.5 1.9-.3z" style="fill:currentColor"/></g></symbol><symbol id="dxre-InsertTableOfFigures" viewBox="0 0 18 18"><path id="_x32_" d="M15 16H3c-1.1 0-2-.9-2-2V4c0-1.1.9-2 2-2h12c1.1 0 2 .9 2 2v10c0 1.1-.9 2-2 2zm0-12H3v10h12V4zm-4 9H4v-3l2-2 5 5zm0-3 3 3h-2l-2-2 1-1zm.5-2c-.8 0-1.5-.7-1.5-1.5S10.7 5 11.5 5s1.5.7 1.5 1.5S12.3 8 11.5 8z" style="fill-rule:evenodd;clip-rule:evenodd;fill:currentColor"/></symbol><symbol id="dxre-InsertTableRowsAbove" viewBox="0 0 18 18"><path id="_x33_" d="M13 18v-4h4v4h-4zm0-16h4v4h-4V2zM7 14h4v4H7v-4zm-6 0h4v4H1v-4zM1 2h4v4H1V2z" style="opacity:.25;fill-rule:evenodd;clip-rule:evenodd;fill:currentColor"/><path id="_x32_" d="M1 12V8h16v4H1zm9-6H8V4H6l3-4 3 4h-2v2z" style="fill-rule:evenodd;clip-rule:evenodd;fill:currentColor"/></symbol><symbol id="dxre-InsertTableRowsBelow" viewBox="0 0 18 18"><path id="_x33_" d="M5 0v4H1V0h4zm0 16H1v-4h4v4zm6-12H7V0h4v4zm6 0h-4V0h4v4zm0 12h-4v-4h4v4z" style="opacity:.25;fill-rule:evenodd;clip-rule:evenodd;fill:currentColor"/><path id="_x32_" d="M17 6v4H1V6h16zm-9 6h2v2h2l-3 4-3-4h2v-2z" style="fill-rule:evenodd;clip-rule:evenodd;fill:currentColor"/></symbol><symbol id="dxre-InsertTextBox" viewBox="0 0 18 18"><path id="_x32_" d="M14 16H4c-1.1 0-2-.9-2-2V4c0-1.1.9-2 2-2h10c1.1 0 2 .9 2 2v10c0 1.1-.9 2-2 2zm0-12H4v10h10V4zm-7.5 9H5l3.2-8h1.6l3.2 8h-1.4l-.8-2.1H7.3L6.5 13zm3.9-3.2L9.1 6.5H9L7.7 9.8h2.7z" style="fill-rule:evenodd;clip-rule:evenodd;fill:currentColor"/></symbol><symbol id="dxre-Italic" viewBox="0 0 18 18"><path id="_x32_" d="M7 0v2h2.2L5.8 12H3v2h8v-2H8.8l3.4-10H15V0H7z" style="fill:currentColor"/></symbol><symbol id="dxre-Last" viewBox="0 0 18 18"><path id="_x32_" d="M13 15h2V3h-2M3 15l8.5-6L3 3v12z"/></symbol><symbol id="dxre-LineSpacing" viewBox="0 0 18 18"><path id="_x32_" d="M7 16v-2h11v2H7zm0-8h11v2H7V8zm0-6h11v2H7V2zM6 14l-3 3-3-3h2V4H0l3-3 3 3H4v10h2z" style="fill-rule:evenodd;clip-rule:evenodd;fill:currentColor"/></symbol><symbol id="dxre-LinkToPrevious" viewBox="0 0 18 18"><path id="_x37_" d="m16 17-4-4 4-4v8z" style="fill-rule:evenodd;clip-rule:evenodd;fill:currentColor"/><g id="_x32_"><path id="_x36_" d="M2 4h3V2H2C.9 2 0 2.9 0 4v12c0 1.1.9 2 2 2h8v-2H2V4z" style="opacity:.25;fill:currentColor"/><rect id="_x35_" x="4" y="12" width="6" height="2" style="opacity:.25;fill:currentColor"/><rect id="_x34_" x="4" y="9" width="6" height="2" style="opacity:.25;fill:currentColor"/><rect id="_x33_" x="12" y="6" width="2" height="2" style="opacity:.25;fill:currentColor"/></g><g id="_x30_1"><g><path d="M8 5h6V3H8v2zM6 4c0-1.7.3-2 2-2h2V0H8C5.2 0 4 1.2 4 4s1.2 4 4 4h2V6H8c-1.7 0-2-.3-2-2zm8-4h-2v2h2c1.7 0 2 .3 2 2s-.3 2-2 2h-2v2h2c2.8 0 4-1.2 4-4s-1.2-4-4-4z" style="fill:currentColor"/></g></g></symbol><symbol id="dxre-ListBullets" viewBox="0 0 18 18"><path id="_x32_" d="M6 16v-2h12v2H6zm0-8h12v2H6V8zm0-6h12v2H6V2zM2 17c-1.1 0-2-.9-2-2s.9-2 2-2 2 .9 2 2-.9 2-2 2zm0-6c-1.1 0-2-.9-2-2s.9-2 2-2 2 .9 2 2-.9 2-2 2zm0-6C.9 5 0 4.1 0 3s.9-2 2-2 2 .9 2 2-.9 2-2 2z" style="fill-rule:evenodd;clip-rule:evenodd;fill:currentColor"/></symbol><symbol id="dxre-ListMultilevel" viewBox="0 0 18 18"><path id="_x32_" d="M10 16v-2h8v2h-8zM8 8h8v2H8V8zM5 2h8v2H5V2zM2 5V2H1V1h2v4H2m2 9v-1h3v4H4v-1h2v-.5H5v-1h1V14H4m.3-7c.4 0 .7.3.7.8 0 .2-.1.3-.2.5L3.1 10H5v1H2v-.9L4 8H2V7h2.3z" style="fill-rule:evenodd;clip-rule:evenodd;fill:currentColor"/></symbol><symbol id="dxre-ListNumbers" viewBox="0 0 18 18"><path id="_x32_" d="M6 16v-2h12v2H6zm0-8h12v2H6V8zm0-6h12v2H6V2zM2 5V2H1V1h2v4H2m-1 9v-1h3v4H1v-1h2v-.5H2v-1h1V14H1m2.3-7c.4 0 .7.3.7.8 0 .2-.1.4-.2.5L2.1 10H4v1H1v-.9L3 8H1V7h2.3z" style="fill-rule:evenodd;clip-rule:evenodd;fill:currentColor"/></symbol><symbol id="dxre-MailMerge" viewBox="0 0 18 18"><path id="_x32_" d="M6 6v3H3c-.5 0-1 .5-1 1v2.6c-2.4-.5-2-1.5-2-2.6V3c0-1.7 1.6-3 6-3s6 1.3 6 3v1H8c-1.1 0-2 .9-2 2zm5 5V9l4 3-4 3v-2H4v-2h7z" style="fill-rule:evenodd;clip-rule:evenodd;fill:currentColor"/><path id="_x31__00000104680912681764209220000008944622075271381407_" d="M16 18h-6c-1.1 0-2-.9-2-2v-1h2v1h6V8h-6v1H8V8c0-1.1.9-2 2-2h6c1.1 0 2 .9 2 2v8c0 1.1-.9 2-2 2z" style="opacity:.35;fill-rule:evenodd;clip-rule:evenodd;fill:currentColor"/></symbol><symbol id="dxre-MergeTableCells" viewBox="0 0 18 18"><path id="_x38_" d="M17 17H7V7h10v10z" style="fill-rule:evenodd;clip-rule:evenodd;fill:currentColor"/><g id="_x32__1_" style="opacity:.25;fill:currentColor"><g><path d="M1 5h4V1H1v4zm6 0h4V1H7v4zm6-4v4h4V1h-4zM1 11h4V7H1v4zm0 6h4v-4H1v4z" style="fill-rule:evenodd;clip-rule:evenodd;fill:currentColor"/></g></g></symbol><symbol id="dxre-New" viewBox="0 0 18 18"><path id="_x32_" d="M11 0H4C2.9 0 2 .9 2 2v12c0 1.1.9 2 2 2h10c1.1 0 2-.9 2-2V5l-5-5zm3 14H4V2h6l4 4v8z" style="fill-rule:evenodd;clip-rule:evenodd;fill:currentColor"/></symbol><symbol id="dxre-Next" viewBox="0 0 18 18"><polygon points="6,15 14.5,9 6,3 "/></symbol><symbol id="dxre-Open" viewBox="0 0 18 18"><path id="_x32_" d="M13.8 15H2c-1.1 0-2-.9-2-2V3c0-1.1.9-2 2-2h3.9l2 1h5.9c1.1 0 2 .9 2 2H2v9l2.1-8H18l-2.3 8.5c-.2.9-1 1.5-1.9 1.5z" style="fill:currentColor"/></symbol><symbol id="dxre-OutlineColor" viewBox="0 0 18 18"><g id="_x32_"><g><path d="M8 11.5V14h2.5l5-5L13 6.5l-5 5zm9.5-6-1.1-1.1c-.3-.3-.8-.7-1.1-.3l-1.5 1.5 2.5 2.5 1.5-1.5c.4-.3.1-.7-.3-1.1zM2 6h8l2-2H2C.9 4 0 4.9 0 6v6c0 1.1.9 2 2 2h4v-2H2V6z" style="fill:currentColor"/></g></g></symbol><symbol id="dxre-PageColor" viewBox="0 0 18 18"><path id="_x32_" d="M15 15H6c-1.1 0-2-.9-2-2h11V3h-5L8 1h7c1.1 0 2 .9 2 2v10c0 1.1-.9 2-2 2zm-8.8-3.4c-.3.2-.7.4-1.1.4-.4 0-.8-.1-1.1-.4L.5 8.1C-.1 7.5-.1 6.6.5 6l3.2-3.2-1.3-1.4L3.8 0l5.7 6c.6.5.6 1.5.1 2.1l-3.4 3.5zM5 4 2 7h6L5 4z" style="fill-rule:evenodd;clip-rule:evenodd;fill:currentColor"/></symbol><symbol id="dxre-PageMargins" viewBox="0 0 18 18"><path id="_x32_" d="M16 18H2c-1.1 0-2-.9-2-2V2C0 .9.9 0 2 0h14c1.1 0 2 .9 2 2v14c0 1.1-.9 2-2 2zM5 2H2v2h3V2zm0 4H2v6h3V6zm0 8H2v2h3v-2zm6-12H7v2h4V2zm0 4H7v6h4V6zm0 8H7v2h4v-2zm5-12h-3v2h3V2zm0 4h-3v6h3V6zm0 8h-3v2h3v-2z" style="fill-rule:evenodd;clip-rule:evenodd;fill:currentColor"/></symbol><symbol id="dxre-PageMarginsModerate" viewBox="0 0 18 18"><path id="_x32_" d="M16 18H2c-1.1 0-2-.9-2-2V2C0 .9.9 0 2 0h14c1.1 0 2 .9 2 2v14c0 1.1-.9 2-2 2zM5 2H2v2h3V2zm0 4H2v6h3V6zm0 8H2v2h3v-2zm6-12H7v2h4V2zm0 4H7v6h4V6zm0 8H7v2h4v-2zm5-12h-3v2h3V2zm0 4h-3v6h3V6zm0 8h-3v2h3v-2z" style="fill-rule:evenodd;clip-rule:evenodd;fill:currentColor"/></symbol><symbol id="dxre-PageMarginsNarrow" viewBox="0 0 18 18"><path id="_x32_" d="M16 18H2c-1.1 0-2-.9-2-2V2C0 .9.9 0 2 0h14c1.1 0 2 .9 2 2v14c0 1.1-.9 2-2 2zM4 2H2v2h2V2zm0 4H2v6h2V6zm0 8H2v2h2v-2zm8-12H6v2h6V2zm0 4H6v6h6V6zm0 8H6v2h6v-2zm4-12h-2v2h2V2zm0 4h-2v6h2V6zm0 8h-2v2h2v-2z" style="fill-rule:evenodd;clip-rule:evenodd;fill:currentColor"/></symbol><symbol id="dxre-PageMarginsNormal" viewBox="0 0 18 18"><g id="_x32_"><g><path d="M16 0H2C.9 0 0 .9 0 2v14c0 1.1.9 2 2 2h14c1.1 0 2-.9 2-2V2c0-1.1-.9-2-2-2zM5 16H2v-3h3v3zm0-5H2V7h3v4zm0-6H2V2h3v3zm6 11H7v-3h4v3zm0-5H7V7h4v4zm0-6H7V2h4v3zm5 11h-3v-3h3v3zm0-5h-3V7h3v4zm0-6h-3V2h3v3z" style="fill:currentColor"/></g></g></symbol><symbol id="dxre-PageMarginsWide" viewBox="0 0 18 18"><path id="_x32_" d="M16 18H2c-1.1 0-2-.9-2-2V2C0 .9.9 0 2 0h14c1.1 0 2 .9 2 2v14c0 1.1-.9 2-2 2zM6 2H2v2h4V2zm0 4H2v6h4V6zm0 8H2v2h4v-2zm4-12H8v2h2V2zm0 4H8v6h2V6zm0 8H8v2h2v-2zm6-12h-4v2h4V2zm0 4h-4v6h4V6zm0 8h-4v2h4v-2z" style="fill-rule:evenodd;clip-rule:evenodd;fill:currentColor"/></symbol><symbol id="dxre-PageOrientation" viewBox="0 0 18 18"><path id="_x32_" d="M16 18H6c-1.1 0-2-.9-2-2v-2H2c-1.1 0-2-.9-2-2V2C0 .9.9 0 2 0h6l4 4v2h2l4 4v6c0 1.1-.9 2-2 2zM10 5 7 2H2v10h2V8c0-1.1.9-2 2-2h4V5zm6 6-3-3H6v8h10v-5z" style="fill-rule:evenodd;clip-rule:evenodd;fill:currentColor"/></symbol><symbol id="dxre-PageOrientationLandscape" viewBox="0 0 18 18"><path id="_x32_" d="M15 16H3c-1.1 0-2-.9-2-2V4c0-1.1.9-2 2-2h9l5 5v7c0 1.1-.9 2-2 2zm0-8-4-4H3v10h12V8zm-4 0H5V7h6v1zm2 2H5V9h8v1zm0 2H5v-1h8v1z" style="fill-rule:evenodd;clip-rule:evenodd;fill:currentColor"/></symbol><symbol id="dxre-PageOrientationPortrait" viewBox="0 0 18 18"><path id="_x32_" d="M14 17H4c-1.1 0-2-.9-2-2V3c0-1.1.9-2 2-2h7l5 5v9c0 1.1-.9 2-2 2zm0-10-4-4H4v12h10V7zm-4 0H6V6h4v1zm2 2H6V8h6v1zm0 2H6v-1h6v1zm0 2H6v-1h6v1z" style="fill-rule:evenodd;clip-rule:evenodd;fill:currentColor"/></symbol><symbol id="dxre-PaperSize" viewBox="0 0 18 18"><path id="_x31_1" d="M12 4H6c-1.1 0-2 .9-2 2v10c0 1.1.9 2 2 2h8c1.1 0 2-.9 2-2V8l-4-4zm2 12H6V6h5l3 3v7z" style="fill-rule:evenodd;clip-rule:evenodd;fill:currentColor"/><g id="_x32_" style="opacity:.5;fill:currentColor"><g><path d="M0 6h2V4H0v2zm0 4h2V8H0v2zm0 4h2v-2H0v2zm0 4h2v-2H0v2zM6 2h2V0H6v2zM2 2h2V0H2v2zm8 0h2V0h-2v2zm4-2v2h2V0h-2z" style="fill:currentColor"/></g></g></symbol><symbol id="dxre-Paragraph" viewBox="0 0 18 18"><path id="_x32_" d="M8 0H5C2.6 0 1 2 1 4.5S2.6 9 5 9h1v5h2.5V2H11v12h2.5V2H16V0H8zM5 7C3.9 7 3.2 5.8 3.2 4.5S3.9 2 5 2h1v5H5z" style="fill:currentColor"/></symbol><symbol id="dxre-Paste" viewBox="0 0 18 18"><path id="_x32_" d="M14.1 16h-10c-1.1 0-2-.9-2-2V4c0-1.1.9-2 2-2h2.2C6.7.8 7.8 0 9.1 0s2.4.8 2.8 2h2.2c1.1 0 2 .9 2 2v10c0 1.1-.9 2-2 2zm-5-14c-.6 0-1 .4-1 1s.4 1 1 1 1-.4 1-1-.4-1-1-1zm5 2h-1v2c0 .6-.4 1-1 1h-6c-.6 0-1-.4-1-1V4h-1v10h10V4z" style="fill-rule:evenodd;clip-rule:evenodd;fill:currentColor"/></symbol><symbol id="dxre-PenColor" viewBox="0 0 18 18"><path id="_x32_" d="M15.8 3.2c.4-.4 0-.9-.4-1.3L14.1.6c-.4-.4-.9-.8-1.3-.4L11 2l3 3 1.8-1.8zM2 11v3h3l8-8-3-3-8 8z" style="fill:currentColor"/></symbol><symbol id="dxre-Prev" viewBox="0 0 18 18"><polygon points="12,3 3.5,9 12,15 "/></symbol><symbol id="dxre-PrintDialog" viewBox="0 0 18 18"><path id="_x32_" d="M15 0H3v3h12V0zm-1 8c-.6 0-1-.4-1-1s.4-1 1-1 1 .4 1 1-.4 1-1 1m-1 6H5v-4h8m2-6H3C1.3 4 0 5.3 0 7v5h3v4h12v-4h3V7c0-1.7-1.3-3-3-3z" style="fill:currentColor"/></symbol><symbol id="dxre-PrintLayoutView" viewBox="0 0 18 18"><path id="_x32_" d="M16 16v2H8v-2H6v-3c0-1.7.3-3 2-3h8c1.7 0 2 1.3 2 3v3h-2zm-2-2h-4v2h4v-2zM8 6h8v3H8V6zm4-4H2v12h2v2H2c-1.1 0-2-.9-2-2V2C0 .9.9 0 2 0h10c1.1 0 2 .9 2 2v2h-2V2z" style="fill-rule:evenodd;clip-rule:evenodd;fill:currentColor"/></symbol><symbol id="dxre-Redo" viewBox="0 0 18 18"><path id="_x32_" d="M14.1 7.8c-1.5-1.2-3.3-2-5.4-2C5 5.8 2 8.1 1 11.4l1.8.6c.8-2.5 3.1-4.3 5.9-4.3 1.5 0 2.8.5 4 1.5L9.9 12H17V5l-2.9 2.8z" style="fill:currentColor"/></symbol><symbol id="dxre-ReplaceAll" viewBox="0 0 18 18"><path id="_x32_" d="M16 12h-1v1c0 1.1-.9 2-2 2V5H3c0-1.1.9-2 2-2h1V2c0-1.1.9-2 2-2h8c1.1 0 2 .9 2 2v8c0 1.1-.9 2-2 2zm0-10H8v1h5c1.1 0 2 .9 2 2v5h1V2zm-4 6v8c0 1.1-.9 2-2 2H2c-1.1 0-2-.9-2-2V8c0-1.1.9-2 2-2h8c1.1 0 2 .9 2 2zm-7.1 5.3-1.8-2L2 12.7 4.9 16l5.1-5.7L8.8 9l-3.9 4.3z" style="fill-rule:evenodd;clip-rule:evenodd;fill:currentColor"/></symbol><symbol id="dxre-ReplaceNext" viewBox="0 0 18 18"><path id="_x32_" d="M16 12h-4v4c0 1.1-.9 2-2 2H2c-1.1 0-2-.9-2-2V8c0-1.1.9-2 2-2h4V2c0-1.1.9-2 2-2h8c1.1 0 2 .9 2 2v8c0 1.1-.9 2-2 2zM4.9 13.3l-1.8-2L2 12.7 4.9 16l5.1-5.7L8.8 9l-3.9 4.3zM16 2H8v4h2c1.1 0 2 .9 2 2v2h4V2z" style="fill-rule:evenodd;clip-rule:evenodd;fill:currentColor"/></symbol><symbol id="dxre-RulerHorizontal" viewBox="0 0 18 18"><path id="_x32_" d="M0 14V6c0-1.1.9-2 2-2h14c1.1 0 2 .9 2 2v8H0zm4-7H2v5h2V7zm4 3H6v2h2v-2zm4-3h-2v5h2V7zm4 3h-2v2h2v-2z" style="fill-rule:evenodd;clip-rule:evenodd;fill:currentColor"/></symbol><symbol id="dxre-Save" viewBox="0 0 18 18"><path id="_x32_" d="M11 5H3V2h8v3zm-2 9c-1.7 0-3-1.3-3-3s1.3-3 3-3 3 1.3 3 3-1.3 3-3 3m4-14H3C1.9 0 1 .9 1 2v12c0 1.1.9 2 2 2h12c1.1 0 2-.9 2-2V4l-4-4z" style="fill:currentColor"/></symbol><symbol id="dxre-Select" viewBox="0 0 18 18"><path id="_x32_" d="M10.1 11.3H15L5 2v12.8l3.3-3.1 1.7 3.9c.1.3.5.5.8.3l.6-.2c.3-.1.5-.5.3-.8l-1.6-3.6z" style="fill:currentColor"/></symbol><symbol id="dxre-SelectAll" viewBox="0 0 18 18"><path id="_x33_" d="M16 18h-2v-2h2v-2h2v2c0 1.1-.9 2-2 2zm0-16h-2V0h2c1.1 0 2 .9 2 2v2h-2V2zM2 2v2H0V2C0 .9.9 0 2 0h2v2H2zm0 14h2v2H2c-1.1 0-2-.9-2-2v-2h2v2z" style="opacity:.5;fill-rule:evenodd;clip-rule:evenodd;fill:currentColor"/><path id="_x32_" d="M14 14H4v-2h10v2zM4 4h10v2H4V4zm10 6H4V8h10v2z" style="fill-rule:evenodd;clip-rule:evenodd;fill:currentColor"/></symbol><symbol id="dxre-SelectTable" viewBox="0 0 18 18"><g id="_x32_"><g><path d="M1 6h4V3H1v3zm6 0h4V3H7v3zm6-3v3h4V3h-4zM1 11h4V8H1v3zm6 0h4V8H7v3zm6 0h4V8h-4v3zM1 16h4v-3H1v3zm6 0h4v-3H7v3zm6 0h4v-3h-4v3z" style="fill-rule:evenodd;clip-rule:evenodd;fill:currentColor"/></g></g></symbol><symbol id="dxre-SelectTableCell" viewBox="0 0 18 18"><path d="M13 16v-3h4v3h-4zm0-13h4v3h-4V3zm0 5h4v3h-4V8zM1 8h4v3H1V8zm0 5h4v3H1v-3zm6 0h4v3H7v-3zM1 3h4v3H1V3zm6 0h4v3H7V3z" style="opacity:.25;fill-rule:evenodd;clip-rule:evenodd;fill:currentColor"/><path d="M11 8v3H7V8h4z" style="fill-rule:evenodd;clip-rule:evenodd;fill:currentColor"/></symbol><symbol id="dxre-SelectTableColumn" viewBox="0 0 18 18"><path d="M13 16v-3h4v3h-4zm0-13h4v3h-4V3zm0 5h4v3h-4V8zM1 8h4v3H1V8zm0 5h4v3H1v-3zM1 3h4v3H1V3z" style="opacity:.25;fill-rule:evenodd;clip-rule:evenodd;fill:currentColor"/><path d="M11 3v13H7V3h4z" style="fill-rule:evenodd;clip-rule:evenodd;fill:currentColor"/></symbol><symbol id="dxre-SelectTableRow" viewBox="0 0 18 18"><path d="M13 16v-3h4v3h-4zm0-13h4v3h-4V3zM7 13h4v3H7v-3zM7 3h4v3H7V3zM1 13h4v3H1v-3zM1 3h4v3H1V3z" style="opacity:.25;fill-rule:evenodd;clip-rule:evenodd;fill:currentColor"/><path d="M1 8h16v3H1V8z" style="fill-rule:evenodd;clip-rule:evenodd;fill:currentColor"/></symbol><symbol id="dxre-Shading" viewBox="0 0 18 18"><path id="_x32_" d="M15 8.5s-2 2.2-2 3.5c0 1.1.9 2 2 2s2-.9 2-2c0-1.3-2-3.5-2-3.5zM12.5 7 5.7 0 4.3 1.4l1.4 1.4L1.4 7c-.6.6-.6 1.5 0 2.1l4.5 4.5c.3.3.7.4 1.1.4s.8-.2 1.1-.4l4.5-4.5c.5-.6.5-1.6-.1-2.1zM3.2 8 7 4.2 10.8 8H3.2z" style="fill:currentColor"/></symbol><symbol id="dxre-ShowAllFieldCodes" viewBox="0 0 18 18"><g id="_x37_"><g><path d="M15 0H3C1.9 0 1 .9 1 2v6c0 1.1.9 2 2 2h12c1.1 0 2-.9 2-2V2c0-1.1-.9-2-2-2zM8 2.4C6.5 2 7.7 4.8 6.3 5c1.5.2 0 2.9 1.7 2.6V9c-4.4.4-1.1-2.8-3.4-3.3V4.3C6.8 3.9 3.7.7 8 1v1.4zm5.4 3.3c-2.3.5 1 3.6-3.4 3.3V7.6c1.7.3.2-2.4 1.7-2.6-1.4-.2-.2-3-1.7-2.6V1c4.3-.4 1.2 2.8 3.4 3.3v1.4z" style="fill:currentColor"/></g></g><g id="_x32_" style="opacity:.5;fill:currentColor"><g><path d="M1 14h7v-2H1v2zm9-2v2h7v-2h-7zm-9 6h7v-2H1v2zm9 0h7v-2h-7v2z" style="fill:currentColor"/></g></g></symbol><symbol id="dxre-ShowAllFieldResults" viewBox="0 0 18 18"><g id="_x32_" style="opacity:.5;fill:currentColor"><g><path d="M1 14h7v-2H1v2zm9-2v2h7v-2h-7zm-9 6h7v-2H1v2zm9 0h7v-2h-7v2z" style="fill:currentColor"/></g></g><path d="M17 8c0 1.1-.9 2-2 2H3c-1.1 0-2-.9-2-2V2c0-1.1.9-2 2-2h12c1.1 0 2 .9 2 2v6zM9.8 1H8.2L5 9h1.5l.8-2h3.5l.8 2H13L9.8 1zM9 2.5l1.3 3.3H7.7L9 2.5z" style="fill-rule:evenodd;clip-rule:evenodd;fill:currentColor"/></symbol><symbol id="dxre-ShowHidden" viewBox="0 0 18 18"><path id="_x32_" d="M8 0H5C2.6 0 1 2 1 4.5S2.6 9 5 9h1v5h2.5V2H11v12h2.5V2H16V0H8zM5 7C3.9 7 3.2 5.8 3.2 4.5S3.9 2 5 2h1v5H5z" style="fill:currentColor"/></symbol><symbol id="dxre-SimpleView" viewBox="0 0 18 18"><path id="_x33_" d="M16 18h-2v-2h2v-2h2v2c0 1.1-.9 2-2 2zm0-8h2v2h-2v-2zm0-4h2v2h-2V6zm0-4h-2V0h2c1.1 0 2 .9 2 2v2h-2V2zm-6 0V0h2v2h-2zM6 2V0h2v2H6zM2 2v2H0V2C0 .9.9 0 2 0h2v2H2zm0 6H0V6h2v2zm0 4H0v-2h2v2zm0 4h2v2H2c-1.1 0-2-.9-2-2v-2h2v2zm6 0v2H6v-2h2zm4 0v2h-2v-2h2z" style="fill-rule:evenodd;clip-rule:evenodd;fill:currentColor"/><path id="_x32_" d="M14 14H4v-2h10v2zM4 4h10v2H4V4zm10 6H4V8h10v2z" style="opacity:.5;fill-rule:evenodd;clip-rule:evenodd;fill:currentColor"/></symbol><symbol id="dxre-SplitTableCells" viewBox="0 0 18 18"><g id="_x33_" style="opacity:.5;fill:currentColor"><g><path d="M13 18h4v-3h-4v3zM1 18h4v-3H1v3zm6 0h4v-3H7v3zm-6-5h4v-3H1v3zm0-5h4V5H1v3zm12-8v3h4V0h-4zM1 3h4V0H1v3zm6 0h4V0H7v3z" style="fill:currentColor"/></g></g><path id="_x32_" d="M11 10H7v3h4v-3m6 0h-4v3h4v-3m0-5h-4v3h4V5m-6 0H7v3h4V5" style="fill:currentColor"/></symbol><symbol id="dxre-Strikeout" viewBox="0 0 18 18"><path id="_x32_" d="M15 6h-5s-1.6-.1-2.5-.9c-.8-.8-.8-1.9-.5-2.3.2-.3.5-.7 1.5-.9s3.2.2 4.1.7V.5C11.9.2 10.8 0 9.4 0 6.1 0 5 1.6 4.7 2c-1.1 1.7 0 3.6.3 4 .1.1-.1-.1 0 0H3v2h5c.1 0-.1 0 0 0 .9.1 2.8.7 2.8 2.3 0 .6-.3 1.1-.7 1.4-.4.3-1.2.4-2.2.4-1.6 0-3.5-1-3.7-1.2v2.3c.2.1 1.6.8 3.8.8s3.2-.5 3.7-.8 1.5-1.1 1.5-2.9c0-1.5-.9-2-1.2-2.3-.1-.1.1.1 0 0h3V6z" style="fill:currentColor"/></symbol><symbol id="dxre-Subscript" viewBox="0 0 18 18"><path id="_x32_" d="M11.8 2H8.7L6.1 5.9 3.7 2H.5l4 5.7L.1 14h3.1L6 9.8 8.8 14h3.3L7.7 7.7 11.8 2zm3.5 12.7.7-.5c.5-.4.9-.9 1.3-1.4s.5-1 .5-1.5c0-.6-.2-1.2-.6-1.6-.4-.4-1-.6-1.8-.7-.5 0-.9.1-1.3.2s-.7.3-1 .5l.5 1.2.7-.4c.3-.1.5-.2.9-.2s.7.1.9.3.3.4.3.7c0 .4-.2.8-.6 1.2s-1 1-1.7 1.6L13 15v1h5v-1.3h-2.7z" style="fill:currentColor"/></symbol><symbol id="dxre-Superscript" viewBox="0 0 18 18"><path id="_x32_" d="M11.8 2H8.7L6.1 5.9 3.7 2H.5l4 5.7L.1 14h3.1L6 9.8 8.8 14h3.3L7.7 7.7 11.8 2zm3.6 3.7.6-.6c.5-.4.9-.9 1.3-1.4s.5-1 .5-1.5c0-.6-.2-1.2-.6-1.6s-1-.6-1.8-.7c-.5 0-.9.1-1.3.2s-.7.3-1 .5l.5 1.2.7-.4c.3-.1.5-.2.9-.2s.7.1.9.3.3.4.3.7c0 .4-.2.8-.6 1.2s-1 1-1.7 1.6L13 6v1h5V5.7h-2.6z" style="fill:currentColor"/></symbol><symbol id="dxre-TableAutoFitContents" viewBox="0 0 18 18"><g id="_x33_" style="opacity:.35;fill:currentColor"><g><path d="M7 18h4v-3H7v3zm-6 0h4v-3H1v3zm12-3v3h4v-3h-4z" style="fill:currentColor"/></g></g><path id="_x32_" d="M11 10H7v3h4v-3m-6 0H1v3h4v-3m12 0h-4v3h4v-3" style="fill:currentColor"/><path d="m17 4-4 4V5H5v3L1 4l4-4v3h8V0l4 4z" style="fill-rule:evenodd;clip-rule:evenodd;fill:currentColor"/></symbol><symbol id="dxre-TableAutoFitWindow" viewBox="0 0 18 18"><g id="_x33_" style="opacity:.35;fill:currentColor"><g><path d="M7 18h4v-3H7v3zm-6 0h4v-3H1v3zm12-3v3h4v-3h-4z" style="fill:currentColor"/></g></g><path id="_x32_" d="M11 10H7v3h4v-3m-6 0H1v3h4v-3m12 0h-4v3h4v-3" style="fill:currentColor"/><path d="M6.2 4.1c-.7 0-1.2-.2-1.6-.6-.4-.3-.6-.8-.6-1.4S4.2.9 4.6.6C5 .2 5.6 0 6.2 0c.7 0 1.2.2 1.6.5.3.3.6.8.6 1.4S8.2 3 7.8 3.4c-.5.4-1 .7-1.6.7zM12.3 0 7.2 8H5.7l5.2-8h1.4zM6.2 1c-.5 0-.9.4-.9 1.1s.3 1 .8 1 1-.4 1-1.1-.3-1-.9-1zm5.6 7c-.7 0-1.2-.2-1.6-.6-.4-.3-.6-.8-.6-1.4s.2-1.2.6-1.5c.4-.3 1-.6 1.7-.6s1.2.2 1.6.5c.3.3.5.8.5 1.4s-.2 1.2-.6 1.6c-.4.4-1 .6-1.6.6zm0-3.1c-.6 0-.9.4-.9 1.1s.3 1 .9 1 .9-.4.9-1.1c0-.3-.1-.6-.3-.8-.1-.1-.3-.2-.6-.2z" style="fill:currentColor"/></symbol><symbol id="dxre-TableFixedColumnWidth" viewBox="0 0 18 18"><g id="_x33_" style="opacity:.35;fill:currentColor"><g><path d="M7 18h4v-3H7v3zm-6 0h4v-3H1v3zm12-3v3h4v-3h-4z" style="fill:currentColor"/></g></g><path id="_x32_" d="M11 10H7v3h4v-3m-6 0H1v3h4v-3m12 0h-4v3h4v-3" style="fill:currentColor"/><path id="_x31__00000063630182597610445210000002615964272200898486_" d="M11.8 3v-.5C11.8 1.1 10.4 0 9 0S6.2 1.1 6.2 2.5V3C5.6 3 5 3.6 5 4.2v2.5C5 7.4 5.6 8 6.2 8h5.5c.7 0 1.3-.6 1.3-1.2V4.3c0-.7-.6-1.3-1.2-1.3zm-1.3 0h-3v-.5c0-.8.7-1.3 1.5-1.3s1.5.5 1.5 1.3V3z" style="fill:currentColor"/></symbol><symbol id="dxre-TableProperties" viewBox="0 0 18 18"><path id="_x33_" d="M13 6.1V5h4v3h-.1c-1-1-2.4-1.7-3.9-1.9zM13 0h4v3h-4V0zM7.1 8H7V5h4v1.1C9.5 6.3 8.1 7 7.1 8zM7 0h4v3H7V0zM1 10h4v3H1v-3zm0-5h4v3H1V5zm0-5h4v3H1V0z" style="opacity:.25;fill-rule:evenodd;clip-rule:evenodd;fill:currentColor"/><path id="_x32_" d="m16.9 14.3-1.1-.8v-1l1.1-.8c.1-.1.1-.2.1-.3l-1-1.7c-.1-.1-.2-.1-.3-.1l-1.4.4c-.3-.2-.6-.4-.9-.5l-.2-1.3c.1-.1-.1-.2-.2-.2h-2c-.1 0-.2.1-.3.2l-.2 1.3c-.3.2-.6.3-.9.5l-1.2-.5c-.1 0-.2 0-.3.1l-1 1.7c-.1.1 0 .2.1.3l1.1.8v1l-1.1.8c-.2.2-.2.3-.2.4l1 1.7c.1.1.2.1.3.1l1.3-.4c.3.2.6.4.9.5l.2 1.3c0 .1.1.2.3.2h2c.1 0 .2-.1.3-.2l.2-1.3c.3-.1.6-.3.9-.5l1.3.5c.1 0 .3 0 .3-.1l1-1.7c0-.2 0-.3-.1-.4zm-4.9.2c-.9 0-1.5-.7-1.5-1.5s.7-1.5 1.5-1.5 1.5.7 1.5 1.5-.6 1.5-1.5 1.5z" style="fill:currentColor"/></symbol><symbol id="dxre-TextWrapBehind" viewBox="0 0 18 18"><g id="_x37_"><rect id="_x31_0" y="12" width="18" height="2" style="opacity:.25;fill-rule:evenodd;clip-rule:evenodd;fill:currentColor"/><rect id="_x39_" y="8" width="18" height="2" style="opacity:.25;fill-rule:evenodd;clip-rule:evenodd;fill:currentColor"/><rect id="_x38_" y="4" width="18" height="2" style="opacity:.25;fill-rule:evenodd;clip-rule:evenodd;fill:currentColor"/></g><g id="_x32_"><rect id="_x36_" y="16" width="18" height="2" style="fill-rule:evenodd;clip-rule:evenodd;fill:currentColor"/><rect id="_x35_" width="18" height="2" style="fill-rule:evenodd;clip-rule:evenodd;fill:currentColor"/><path id="_x34_" d="M10.8 8.3C12.3 6.7 11.2 4 9 4 7.6 4 6.5 5.1 6.5 6.5c0 2.2 2.7 3.3 4.3 1.8z" style="fill-rule:evenodd;clip-rule:evenodd;fill:currentColor"/><path id="_x33_" d="M4 12.8V14h10v-1.2c0-1.4-2.2-2.5-5-2.5s-5 1.1-5 2.5z" style="fill-rule:evenodd;clip-rule:evenodd;fill:currentColor"/></g></symbol><symbol id="dxre-TextWrapInFrontOfText" viewBox="0 0 18 18"><path id="_x32_" d="M0 18v-2h18v2H0zm0-6h18v2H0v-2zm0-4h18v2H0V8zm0-4h18v2H0V4zm0-4h18v2H0V0z" style="opacity:.25;fill-rule:evenodd;clip-rule:evenodd;fill:currentColor"/><path id="_x30_2" d="M6.5 6.5C6.5 5.1 7.6 4 9 4c2.2 0 3.3 2.7 1.8 4.3-1.6 1.5-4.3.4-4.3-1.8z" style="fill-rule:evenodd;clip-rule:evenodd;fill:currentColor"/><path id="_x30_1" d="M14 12.8V14H4v-1.2c0-1.4 2.2-2.5 5-2.5s5 1.1 5 2.5z" style="fill-rule:evenodd;clip-rule:evenodd;fill:currentColor"/></symbol><symbol id="dxre-TextWrapInline" viewBox="0 0 18 18"><path id="_x32_" d="M0 18v-2h18v2H0zm13-6h5v2h-5v-2zm0-4h5v2h-5V8zm-2-4h7v2h-7V4zM2.5 6.5C2.5 5.1 3.6 4 5 4c2.2 0 3.3 2.7 1.8 4.3-1.6 1.5-4.3.4-4.3-1.8zm7.5 6.2V14H0v-1.2c0-1.4 2.2-2.5 5-2.5s5 1.1 5 2.4zM0 0h18v2H0V0z" style="fill-rule:evenodd;clip-rule:evenodd;fill:currentColor"/></symbol><symbol id="dxre-TextWrapSquare" viewBox="0 0 18 18"><path id="_x32_" d="M0 18v-2h18v2H0zm16-6h2v2h-2v-2zm0-4h2v2h-2V8zm0-4h2v2h-2V4zM6.5 6.5C6.5 5.1 7.6 4 9 4c2.2 0 3.3 2.7 1.8 4.3-1.6 1.5-4.3.4-4.3-1.8zm7.5 6.2V14H4v-1.2c0-1.4 2.2-2.5 5-2.5s5 1.1 5 2.4zM0 0h18v2H0V0zm2 6H0V4h2v2zm0 4H0V8h2v2zm0 4H0v-2h2v2z" style="fill-rule:evenodd;clip-rule:evenodd;fill:currentColor"/></symbol><symbol id="dxre-TextWrapThrough" viewBox="0 0 18 18"><path id="_x32_" d="M0 18v-2h18v2H0zm16-6h2v2h-2v-2zm-2-4h4v2h-3l-1-2zm-1-4h5v2h-4l-1-2zM6.5 6.5C6.5 5.1 7.6 4 9 4c2.2 0 3.3 2.7 1.8 4.3-1.6 1.5-4.3.4-4.3-1.8zm7.5 6.2V14H4v-1.2c0-1.4 2.2-2.5 5-2.5s5 1.1 5 2.4zM0 0h18v2H0V0zm4 6H0V4h5L4 6zm-1 4H0V8h4l-1 2zm-1 4H0v-2h2v2z" style="fill-rule:evenodd;clip-rule:evenodd;fill:currentColor"/></symbol><symbol id="dxre-TextWrapTight" viewBox="0 0 18 18"><path id="_x32_" d="M0 18v-2h18v2H0zm16-6h2v2h-2v-2zm0-4h2v2h-2V8zm-2-4h4v2h-4V4zM6.5 6.5C6.5 5.1 7.6 4 9 4c2.2 0 3.3 2.7 1.8 4.3-1.6 1.5-4.3.4-4.3-1.8zm7.5 6.2V14H4v-1.2c0-1.4 2.2-2.5 5-2.5s5 1.1 5 2.4zM0 0h18v2H0V0zm4 6H0V4h4v2zm-2 4H0V8h2v2zm0 4H0v-2h2v2z" style="fill-rule:evenodd;clip-rule:evenodd;fill:currentColor"/></symbol><symbol id="dxre-TextWrapTopAndBottom" viewBox="0 0 18 18"><path id="_x32_" d="M0 18v-2h18v2H0zM6.5 6.5C6.5 5.1 7.6 4 9 4c2.2 0 3.3 2.7 1.8 4.3-1.6 1.5-4.3.4-4.3-1.8zm7.5 6.2V14H4v-1.2c0-1.4 2.2-2.5 5-2.5s5 1.1 5 2.4zM0 0h18v2H0V0z" style="fill-rule:evenodd;clip-rule:evenodd;fill:currentColor"/></symbol><symbol id="dxre-ToggleFieldCodes" viewBox="0 0 18 18"><path id="_x36_" d="M12.5 0h-11C.7 0 0 .7 0 1.5v6C0 8.3.7 9 1.5 9h11c.8 0 1.5-.7 1.5-1.5v-6c0-.8-.7-1.5-1.5-1.5zM6.1 2.2c-1.4-.3-.3 2.1-1.6 2.3 1.4.2 0 2.5 1.5 2.3V8c-4 .3-1-2.4-3.1-2.9V3.9C5 3.5 2.2.8 6.1 1v1.2zM11 5.1c-2.1.4.9 3.1-3.1 2.9V6.8c1.6.2.2-2.1 1.6-2.3-1.3-.2-.2-2.6-1.6-2.3V1C11.8.7 9 3.5 11 3.9v1.2z" style="opacity:.5;fill:currentColor"/><g id="_x32_"><path id="_x35_" d="M8.1 14.4c-1.4.1-1.4.8-1.4.9 0 .1 0 .7.8.7 1.3 0 1-1.6 1-1.6h-.4z" style="fill:currentColor"/><path id="_x34_" d="M16.5 9h-12C3.7 9 3 9.7 3 10.5v6c0 .8.7 1.5 1.5 1.5h12c.8 0 1.5-.7 1.5-1.5v-6c0-.8-.7-1.5-1.5-1.5zm-7.7 7.6c0-.1-.1-.4-.1-.5-.2.3-.8.6-1.5.6-1.6 0-1.7-1.1-1.7-1.4s-.2-1.6 2.1-1.6c.2 0 .9-.1.9-.6 0-.1 0-.6-.8-.6-.6 0-.8.5-.8.7H5.7c0-.3.2-1.7 2.1-1.7 1.7 0 2.1 1.2 2.1 1.4v2.6c0 .3.1 1 .2 1.1H8.8zm4.8.2c-.3 0-.6-.1-.9-.2-.2-.1-.5-.3-.6-.6v.6h-1.2v-6.4h1.3v2.1c.1-.3.4-.5.6-.6s.6-.2.8-.2c1.8 0 1.9 2.2 1.9 2.6 0 .6-.2 2.7-1.9 2.7z" style="fill:currentColor"/><path id="_x33_" d="M13.3 12.6c-.7 0-1.3.7-1.3 1.6 0 .9.6 1.6 1.3 1.6s1.3-.7 1.3-1.6c-.1-.9-.6-1.6-1.3-1.6z" style="fill:currentColor"/></g></symbol><symbol id="dxre-Underline" viewBox="0 0 18 18"><path id="_x32_" d="M2 18h14v-2H2v2m7-4c3.3 0 6-2.7 6-6V0h-2.5v8c0 1.9-1.6 3.5-3.5 3.5S5.5 9.9 5.5 8V0H3v8c0 3.3 2.7 6 6 6z" style="fill:currentColor"/></symbol><symbol id="dxre-Undo" viewBox="0 0 18 18"><path id="_x32_" d="M1 5v7h7.1L5.4 9.2c1.1-.9 2.5-1.5 4-1.5 2.8 0 5.1 1.8 5.9 4.3l1.8-.6c-1-3.3-4-5.6-7.7-5.6-2.1 0-3.9.8-5.4 2L1 5z" style="fill:currentColor"/></symbol><symbol id="dxre-UpdateField" viewBox="0 0 18 18"><path id="_x32_" d="M16 18H2c-1.1 0-2-.9-2-2V2C0 .9.9 0 2 0h14c1.1 0 2 .9 2 2v14c0 1.1-.9 2-2 2zm0-16H2v14h14V2zM9 3c2.6 0 4.8 1.7 5.6 4h-2.2c-.7-1.2-2-2.1-3.5-2.1-1.4 0-2.5.7-3.3 1.8L7 8H3V4l1.3 1.3C5.4 3.9 7.1 3 9 3zm0 10c1.4 0 2.5-.7 3.3-1.8L11 10h4v4l-1.3-1.3C12.6 14.1 10.9 15 9 15c-2.6 0-4.8-1.7-5.6-4h2.1c.7 1.2 2 2 3.5 2z" style="fill-rule:evenodd;clip-rule:evenodd;fill:currentColor"/></symbol><symbol id="dxre-UpdateTableOfContents" viewBox="0 0 18 18"><path id="_x32_" d="M16 18H2c-1.1 0-2-.9-2-2V2C0 .9.9 0 2 0h14c1.1 0 2 .9 2 2v14c0 1.1-.9 2-2 2zm0-16H2v14h14V2zM9 3c2.6 0 4.8 1.7 5.6 4h-2.2c-.7-1.2-2-2.1-3.5-2.1-1.4 0-2.5.7-3.3 1.8L7 8H3V4l1.3 1.3C5.4 3.9 7.1 3 9 3zm0 10c1.4 0 2.5-.7 3.3-1.8L11 10h4v4l-1.3-1.3C12.6 14.1 10.9 15 9 15c-2.6 0-4.8-1.7-5.6-4h2.1c.7 1.2 2 2 3.5 2z" style="fill-rule:evenodd;clip-rule:evenodd;fill:currentColor"/></symbol><symbol id="dxre-ViewMergedData" viewBox="0 0 18 18"><path id="_x33_" d="M14 2H2v14h6l1 2H2c-1 0-2-1-2-2V2c0-1 1-2 2-2h12c1 0 2 1 2 2v6l-2-2V2zm-2 6c2.2 0 4 1.8 4 4 0 .8-.2 1.5-.6 2.1l2.6 2.6-1.2 1.3-2.7-2.6c-.6.4-1.3.6-2.1.6-2.2 0-4-1.8-4-4s1.8-4 4-4zm0 6c1.1 0 2-.9 2-2s-.9-2-2-2-2 .9-2 2 .9 2 2 2z" style="fill-rule:evenodd;clip-rule:evenodd;fill:currentColor"/><path id="_x32_" d="M4 12h3v2H4v-2zm0-8h8v2H4V4zm3 6H4V8h5l-2 2z" style="opacity:.5;fill-rule:evenodd;clip-rule:evenodd;fill:currentColor"/></symbol><symbol id="dxre-ViewTableGridlines" viewBox="0 0 18 18"><path id="_x37_" d="M16 18H2c-1.1 0-2-.9-2-2V2C0 .9.9 0 2 0h14c1.1 0 2 .9 2 2v14c0 1.1-.9 2-2 2zm0-8h-4V8h4V2h-6v4H8V2H2v6h4v2H2v6h6v-4h2v4h6v-6zM8 8h2v2H8V8z" style="fill-rule:evenodd;clip-rule:evenodd;fill:currentColor"/><g id="_x32_" style="opacity:.25;fill:currentColor"><g><path d="M4 6h2V4H4v2zm0 8h2v-2H4v2zm8-10v2h2V4h-2zm0 10h2v-2h-2v2z" style="fill-rule:evenodd;clip-rule:evenodd;fill:currentColor"/></g></g></symbol></svg>