<?xml version="1.0" encoding="utf-8"?><svg xmlns="http://www.w3.org/2000/svg" xmlns:xlink="http://www.w3.org/1999/xlink"><symbol fill="none" viewBox="0 0 12 8" id="center-tab-marker" xmlns="http://www.w3.org/2000/svg"><path fill-rule="evenodd" clip-rule="evenodd" d="M7 0H5v6H0v2h12V6H7V0z" fill="#000" fill-opacity=".54"/></symbol><symbol fill="none" viewBox="0 0 12 8" id="decimal-tab-marker" xmlns="http://www.w3.org/2000/svg"><path d="M5 0h2v6h5v2H0V6h5V0z" fill="#000" fill-opacity=".54"/><path d="M12 0H9v3h3V0z" fill="#000" fill-opacity=".54"/></symbol><symbol fill="none" viewBox="0 0 12 11" id="first-line-indent-slider" xmlns="http://www.w3.org/2000/svg"><path d="M0 0h12v7l-6 4-6-4V0z" fill="#000" fill-opacity=".54"/><path d="M2 2h8v4L6 8.5 2 6V2z" fill="#fff"/></symbol><symbol fill="none" viewBox="0 0 12 11" id="indent-slider" xmlns="http://www.w3.org/2000/svg"><path d="M0 11h12V4L6 0 0 4v7z" fill="#000" fill-opacity=".54"/><path d="M2 9h8V5L6 2.5 2 5v4z" fill="#fff"/></symbol><symbol fill="none" viewBox="0 0 12 6" id="left-indent-slider" xmlns="http://www.w3.org/2000/svg"><path fill="#000" fill-opacity=".54" d="M0 0h12v6H0z"/><path fill="#fff" d="M2 0h8v4H2z"/></symbol><symbol fill="none" viewBox="0 0 8 8" id="left-tab-marker" xmlns="http://www.w3.org/2000/svg"><path d="M2 0H0v8h8V6H2V0z" fill="#000" fill-opacity=".54"/></symbol><symbol fill="none" viewBox="0 0 8 8" id="right-tab-marker" xmlns="http://www.w3.org/2000/svg"><path d="M6 0h2v8H0V6h6V0z" fill="#000" fill-opacity=".54"/></symbol><symbol fill="none" viewBox="0 0 14 12" id="table-column-drag-marked" xmlns="http://www.w3.org/2000/svg"><path fill-rule="evenodd" clip-rule="evenodd" d="M4 0H2v2H0v2h2v2H0v2h2v2H0v2h14v-2h-2V8h2V6h-2V4h2V2h-2V0h-2v2H8V0H6v2H4V0zm0 4v2h2V4H4zm4 0v2h2V4H8zm-4 6V8h2v2H4zm4 0V8h2v2H8z" fill="#000" fill-opacity=".54"/></symbol></svg>