<?xml version="1.0" encoding="UTF-8" standalone="no"?>
<svg xmlns="http://www.w3.org/2000/svg"><symbol id="dx-approve-icon" viewBox="0 0 16 16"><path id="_x32_" d="M15.5 4.5 5.5 14l-5-5L2 7.5 5.5 11 14 2.5l1.5 2z" style="fill-rule:evenodd;clip-rule:evenodd;fill:currentColor"/></symbol><symbol id="dx-apt-exception" viewBox="0 0 14 14"><path d="M13 7H9l1.6-1.6C10 4 8.6 3 7 3c-.7 0-1.4.2-2 .6L10.4 9h2.2c-.2.5-.5 1-.8 1.5l1.8 1.8-1.4 1.5-1.9-1.9c-.8.7-2 1.1-3.3 1.1-2.2 0-4.1-1.2-5.1-2.9L0 12V7h5L3.4 8.6C4 10 5.4 11 7 11c.7 0 1.4-.2 2-.6L3.6 5H1.4c.2-.5.5-1 .8-1.5L.3 1.7 1.7.2l1.9 1.9C4.5 1.4 5.7 1 7 1c2.2 0 4.1 1.2 5.1 2.9L14 2v5h-1z" style="fill:currentColor;clip-rule:evenodd"/></symbol><symbol id="dx-apt-recurrence" viewBox="0 0 14 14"><path d="M14 7H9l1.6-1.6C10 4 8.6 3 7 3c-1.5 0-2.8.8-3.4 2H1.4c.8-2.3 3-4 5.6-4 2.2 0 4.1 1.2 5.1 2.9L14 2v5zM5 7 3.4 8.6C4 10 5.4 11 7 11c1.5 0 2.8-.8 3.4-2h2.2c-.8 2.3-3 4-5.6 4-2.2 0-4.1-1.2-5.1-2.9L0 12V7h5z" style="fill-rule:evenodd;clip-rule:evenodd;fill:currentColor"/></symbol><symbol id="dx-arrow-up" viewBox="0 0 16 16"><path id="_x32_" d="M9 6v9H7V6H4l4-5 4 5H9z" style="fill-rule:evenodd;clip-rule:evenodd;fill:currentColor"/></symbol><symbol id="dx-back" viewBox="0 0 18 18"><path d="M17 8.1v2H5l5.5 5.5L9.1 17 1.2 9.1l7.9-7.9 1.4 1.4L5 8.1h12z" style="fill:currentColor"/></symbol><symbol id="dx-calendar-icon" viewBox="0 0 16 16"><path id="_x32_" d="M13 15H3c-1.1 0-2-.9-2-2V3c0-1.1.9-2 2-2 0-.6.4-1 1-1s1 .4 1 1h6c0-.6.4-1 1-1s1 .4 1 1c1.1 0 2 .9 2 2v10c0 1.1-.9 2-2 2zm0-10H3v8h10V5zM6 9H4V7h2v2zm0 3H4v-2h2v2zm3-3H7V7h2v2zm0 3H7v-2h2v2zm3-3h-2V7h2v2zm0 3h-2v-2h2v2z"/></symbol><symbol id="dx-cancel-icon" viewBox="0 0 16 16"><path id="_x32_" d="m14 12.5-1.4 1.4L8 9.2l-4.6 4.6L2 12.5l4.6-4.6L2 3.2l1.4-1.4L8 6.5l4.6-4.6L14 3.2 9.3 7.9l4.7 4.6z" style="fill-rule:evenodd;clip-rule:evenodd;fill:currentColor"/></symbol><symbol id="dx-caret-down" viewBox="0 0 16 16"><g id="_x32_"><path id="_x33_" d="M8 12 3 6h10l-5 6z" style="fill-rule:evenodd;clip-rule:evenodd;fill:currentColor"/></g></symbol><symbol id="dx-caret-dropdown-editor" viewBox="0 0 16 16"><path id="_x33_" d="M8 11 4 6h8l-4 5z" style="fill-rule:evenodd;clip-rule:evenodd;fill:currentColor"/></symbol><symbol id="dx-chevron-double-left" viewBox="0 0 16 16"><path id="_x33_" d="M8.5 13.5 7 15 0 8l7-7 1.5 1.5L3 8l5.5 5.5z" style="fill-rule:evenodd;clip-rule:evenodd;fill:currentColor"/><path id="_x32_" d="M15 13.5 13.5 15l-7-7 7-7L15 2.5 9.5 8l5.5 5.5z" style="fill-rule:evenodd;clip-rule:evenodd;fill:currentColor"/></symbol><symbol id="dx-chevron-double-right" viewBox="0 0 16 16"><path id="_x33_" d="M13 8 7.5 2.5 9 1l7 7-7 7-1.5-1.5L13 8z" style="fill-rule:evenodd;clip-rule:evenodd;fill:currentColor"/><path id="_x32_" d="M6.5 8 1 2.5 2.5 1l7 7-7 7L1 13.5 6.5 8z" style="fill-rule:evenodd;clip-rule:evenodd;fill:currentColor"/></symbol><symbol id="dx-chevron-down" viewBox="0 0 16 16"><path id="_x32_" d="M2.5 4.5 1 6l7 7 7-7-1.5-1.5L8 10 2.5 4.5z" style="fill-rule:evenodd;clip-rule:evenodd;fill:currentColor"/></symbol><symbol id="dx-chevron-left" viewBox="0 0 16 16"><path id="_x32_" d="M12.5 13.5 11 15 4 8l7-7 1.5 1.5L7 8l5.5 5.5z" style="fill-rule:evenodd;clip-rule:evenodd;fill:currentColor"/></symbol><symbol id="dx-chevron-right" viewBox="0 0 16 16"><path id="_x32_" d="M9.5 8 4 2.5 5.5 1l7 7-7 7L4 13.5 9.5 8z" style="fill-rule:evenodd;clip-rule:evenodd;fill:currentColor"/></symbol><symbol id="dx-chevron-to-left" viewBox="0 0 16 16"><path id="_x32_" d="M13.5 13.5 12 15 5 8l7-7 1.5 1.5L8 8l5.5 5.5z" style="fill-rule:evenodd;clip-rule:evenodd;fill:currentColor"/><rect id="_x31__1_" x="3" y="1" transform="matrix(-1 -4.547486e-11 4.547486e-11 -1 8 16)" width="2" height="14" style="fill-rule:evenodd;clip-rule:evenodd;fill:currentColor"/></symbol><symbol id="dx-chevron-to-right" viewBox="0 0 16 16"><path id="_x32_" d="M8 8 2.5 2.5 4 1l7 7-7 7-1.5-1.5L8 8z" style="fill-rule:evenodd;clip-rule:evenodd;fill:currentColor"/><rect id="_x31__1_" x="11" y="1" width="2" height="14" style="fill-rule:evenodd;clip-rule:evenodd;fill:currentColor"/></symbol><symbol id="dx-column-chooser-button-icon" viewBox="0 0 16 16"><path id="_x34_" d="M12 2H3c-.6 0-1 .4-1 1v9c0 .6.4 1 1 1h9c.6 0 1-.4 1-1V3c0-.6-.4-1-1-1zm0 10H3V5h9v7zm0-8H3V3h9v1z" style="fill-rule:evenodd;clip-rule:evenodd;fill:currentColor"/><g id="_x31__1_"><path id="_x33_" d="M14 4h-1v1h1v9H5v-1H4v1c0 .6.4 1 1 1h9c.6 0 1-.4 1-1V5c0-.6-.4-1-1-1z" style="opacity:.5;fill:currentColor"/><path id="_x32_" d="M11 6H4v5h7V6zm-1 4H5V9h5v1zm0-2H5V7h5v1z" style="opacity:.5;fill:currentColor"/></g></symbol><symbol id="dx-column-chooser-drag-icon" viewBox="0 0 18 18"><path id="_x32_" d="M10 16v-2h2v2h-2zm0-6h2v2h-2v-2zm0-4h2v2h-2V6zm0-4h2v2h-2V2zM6 14h2v2H6v-2zm0-4h2v2H6v-2zm0-4h2v2H6V6zm0-4h2v2H6V2z" style="fill-rule:evenodd;clip-rule:evenodd;fill:currentColor"/></symbol><symbol id="dx-drop-file-icon" viewBox="0 0 42 42"><g id="_x32_"><path id="_x33_" d="M34 42H8c-2.2 0-4-1.8-4-4V4c0-2.2 1.8-4 4-4h19l11 11v27c0 2.2-1.8 4-4 4zM27 4v7h7l-7-7zm7 10H24V4H8v34h26V14z" style="fill:currentColor;clip-rule:currentColor"/></g><g id="_x31_2"><path id="_x33__1_" d="M28 26h-5v8h-4v-8h-5l7-7 7 7z" style="fill:currentColor;clip-rule:currentColor"/></g></symbol><symbol id="dx-editor-clear" viewBox="0 0 16 16"><path id="_x32_" d="m12.7 11.3-1.4 1.4L8 9.4l-3.3 3.3-1.4-1.4L6.6 8 3.3 4.7l1.4-1.4L8 6.6l3.3-3.3 1.4 1.4L9.4 8l3.3 3.3z" style="fill-rule:evenodd;clip-rule:evenodd;fill:currentColor"/></symbol><symbol id="dx-expand" viewBox="0 0 18 18"><path id="_x32_" d="M14 5.4 11.4 8H10V6.6L12.6 4H11V2h5v5h-2V5.4zM8 6.6V8H6.6L4 5.4V7H2V2h5v2H5.4L8 6.6zm-4 6L6.6 10H8v1.4L5.4 14H7v2H2v-5h2v1.6zm7 1.4h1.6L10 11.4V10h1.4l2.6 2.6V11h2v5h-5v-2z" style="fill-rule:evenodd;clip-rule:evenodd;fill:currentColor"/></symbol><symbol id="dx-menu-hamburger" viewBox="0 0 18 18"><rect x="0" y="3" width="18" height="2" style="fill:currentColor"/><rect x="0" y="8" width="18" height="2" style="fill:currentColor"/><rect x="0" y="13" width="18" height="2" style="fill:currentColor"/></symbol><symbol id="dx-modal-close-image" viewBox="0 0 16 16"><path id="_x32_" d="M13 11.6 11.6 13 8 9.4 4.4 13 3 11.6 6.6 8 3 4.4 4.4 3 8 6.6 11.6 3 13 4.4 9.4 8l3.6 3.6z" style="fill-rule:evenodd;clip-rule:evenodd;fill:currentColor"/></symbol><symbol id="dx-more" viewBox="0 0 16 16"><g id="_x34_"><circle cx="3.5" cy="8.5" r="1.5" style="fill:currentColor"/></g><g id="_x33_"><circle cx="8.5" cy="8.5" r="1.5" style="fill:currentColor"/></g><g id="_x32_"><circle cx="13.5" cy="8.5" r="1.5" style="fill:currentColor"/></g></symbol><symbol id="dx-remove-tag" viewBox="0 0 16 16"><path id="_x32_" d="M12 5.3 10.7 4 8 6.7 5.3 4 4 5.3 6.7 8 4 10.7 5.3 12 8 9.3l2.7 2.7 1.3-1.3L9.3 8 12 5.3z" style="fill:currentColor"/></symbol><symbol id="dx-sc-close-icon" viewBox="0 0 18 18"><path id="_x32_" d="M16 14.5 14.5 16 9 10.5 3.5 16 2 14.5 7.5 9 2 3.5 3.5 2 9 7.5 14.5 2 16 3.5 10.5 9l5.5 5.5z" style="fill:currentColor;clip-rule:evenodd"/></symbol><symbol id="dx-sc-delete-icon" viewBox="0 0 18 18"><path id="_x32_" d="M3 5V3h3c0-.6.4-1 1-1h4c.6 0 1 .4 1 1h3v2H3zm11 8v1c0 1.1-.9 2-2 2H6c-1.1 0-2-.9-2-2V6h10v7z" style="fill:currentColor;clip-rule:evenodd"/></symbol><symbol id="dx-sc-description-icon" viewBox="0 0 18 18"><g id="_x32_"><g><path d="M2 4v2h14V4H2zm0 6h14V8H2v2zm0 4h10v-2H2v2z" style="fill:currentColor;clip-rule:evenodd"/></g></g></symbol><symbol id="dx-sc-edit-icon" viewBox="0 0 18 18"><path d="m13.9 1-2.1 2.1 3.1 3.1L17 4.1 13.9 1zM2 12.9V16h3.1l8.8-8.8-3.1-3.1L2 12.9z" style="fill:currentColor"/></symbol><symbol id="dx-sc-exception-icon" viewBox="0 0 18 18"><path id="_x32_" d="m13 9 1.7-1.7C14 4.8 11.7 3 9 3c-.6 0-1.2.1-1.7.3L5.7 1.7C6.7 1.3 7.8 1 9 1c3.3 0 6 2 7.3 4.7L18 4v5h-5zm2.3 7.7-14-14 1.4-1.4 14 14-1.4 1.4zM3.6 11.4c.9 2.1 3 3.6 5.4 3.6.6 0 1.2-.1 1.7-.3l1.5 1.5c-1 .5-2.1.7-3.3.7-3 0-5.6-1.7-6.9-4.1L0 15v-5h5l-1.4 1.4z" style="fill:currentColor;clip-rule:evenodd"/></symbol><symbol id="dx-sc-label-icon" viewBox="0 0 18 18"><path id="_x32_" d="M16.14 2H1.86C.83 2 0 2.9 0 4v11c0 1.1.83 2 1.86 2h14.28c1.03 0 1.86-.9 1.86-2V4c0-1.1-.83-2-1.86-2zM4 15H2V4h2v11zm12 0H6V4h10v11z" style="fill:currentColor;clip-rule:evenodd"/><rect id="_x31__1_" x="6" y="4" width="10" height="11" style="opacity:.5;fill:currentColor;clip-rule:evenodd"/></symbol><symbol id="dx-sc-location-icon" viewBox="0 0 18 18"><path id="_x32_" d="M9.5 18S3 11.03 3 6.3C3 2.82 5.91 0 9.5 0S16 2.82 16 6.3C16 11.03 9.5 18 9.5 18zm0-16C7.01 2 5 4.19 5 6.9 5 10.58 9.5 15 9.5 15S14 10.58 14 6.9C14 4.19 11.98 2 9.5 2zm-.01 6c-.83 0-1.5-.67-1.5-1.5S8.66 5 9.49 5s1.5.67 1.5 1.5S10.32 8 9.49 8z" style="fill:currentColor;clip-rule:evenodd"/></symbol><symbol id="dx-sc-recurrence-icon" viewBox="0 0 18 18"><path id="_x31__1_" d="M18 9h-5l1.71-1.71C13.97 4.81 11.71 3 9 3 6.03 3 3.58 5.16 3.1 8H1.07C1.56 4.05 4.92 1 9 1c3.25 0 6.01 1.95 7.27 4.73L18 4v5zM3.56 11.44C4.5 13.53 6.56 15 9 15c2.61 0 4.81-1.67 5.63-4h2.11c-.89 3.45-4.01 6-7.74 6-2.98 0-5.56-1.65-6.93-4.07L0 15v-5h5l-1.44 1.44z" style="fill:currentColor;clip-rule:evenodd"/></symbol><symbol id="dx-sc-resource-icon" viewBox="0 0 18 18"><g id="_x32_"><g><path d="M15 1c0-.6-.4-1-1-1s-1 .4-1 1H5c0-.6-.4-1-1-1S3 .4 3 1c-1.1 0-2 .9-2 2v12c0 1.1.9 2 2 2h12c1.1 0 2-.9 2-2V3c0-1.1-.9-2-2-2zm0 14H3V5h12v10zm-2-6H9v4h4V9z" style="fill-rule:evenodd;clip-rule:evenodd;fill:currentColor"/></g></g></symbol><symbol id="dx-sc-save-icon" viewBox="0 0 18 18"><path id="_x32_" d="M12 6H2V2h10v4zM9 16c-1.7 0-3-1.3-3-3s1.3-3 3-3 3 1.3 3 3-1.3 3-3 3m5-16H2C.9 0 0 .9 0 2v14c0 1.1.9 2 2 2h14c1.1 0 2-.9 2-2V4l-4-4z" style="fill:currentColor"/></symbol><symbol id="dx-sc-status-icon" viewBox="0 0 18 18"><path id="_x32_" d="M16.14 2H1.86C.83 2 0 2.9 0 4v11c0 1.1.83 2 1.86 2h14.28c1.03 0 1.86-.9 1.86-2V4c0-1.1-.83-2-1.86-2zM4 15H2V4h2v11zm12 0H6V4h10v11z" style="fill:currentColor;clip-rule:evenodd"/><rect id="_x31__1_" x="2" y="4" width="2" height="11" style="opacity:.5;fill:currentColor;clip-rule:evenodd"/></symbol><symbol id="dx-sc-time-icon" viewBox="0 0 18 18"><g id="_x32_"><g><path d="M9 5h-.99L8 10h4V9H9V5zm0-4C4.58 1 1 4.58 1 9s3.58 8 8 8 8-3.58 8-8-3.58-8-8-8zm0 14c-3.31 0-6-2.69-6-6s2.69-6 6-6 6 2.69 6 6-2.69 6-6 6z" style="fill:currentColor;clip-rule:evenodd"/></g></g></symbol><symbol id="dx-search" viewBox="0 0 24 24"><path id="_x31_" d="m19.7 18.3-1.4 1.4-3.8-3.8c-1 .7-2.2 1.1-3.5 1.1-3.3 0-6-2.7-6-6s2.7-6 6-6 6 2.7 6 6c0 1.3-.4 2.5-1.1 3.5l3.8 3.8zM11 7c-2.2 0-4 1.8-4 4s1.8 4 4 4 4-1.8 4-4-1.8-4-4-4z" style="fill-rule:evenodd;clip-rule:evenodd;fill:currentColor"/></symbol><symbol id="dx-settings" viewBox="0 0 16 16"><path id="_x32_" d="M8 4.8c1.8 0 3.3 1.4 3.3 3.2S9.8 11.2 8 11.2 4.7 9.8 4.7 8 6.2 4.8 8 4.8m0 1.6c-.9 0-1.6.7-1.6 1.6S7.1 9.6 8 9.6 9.6 8.9 9.6 8 8.9 6.4 8 6.4M6.4 16c-.2 0-.4-.1-.4-.3l-.3-2.1c-.5-.2-1-.5-1.4-.8l-2 .8c-.2.1-.4 0-.5-.2L.2 10.6c-.2-.2-.2-.4 0-.5l1.7-1.3-.1-.8.1-.8L.2 5.9C0 5.8 0 5.6.1 5.4l1.6-2.8c.1-.2.3-.2.5-.2l2 .8c.4-.3.9-.6 1.4-.8L5.9.3c.1-.2.2-.3.5-.3h3.3c.2 0 .4.1.4.3l.3 2.1c.5.2 1 .5 1.4.8l2-.8c.2-.1.4 0 .5.2l1.6 2.8c.1.2.1.4-.1.5l-1.7 1.3.1.8-.1.8 1.7 1.3c.2.1.2.3.1.5l-1.6 2.8c-.1.2-.3.2-.5.2l-2-.8c-.4.3-.9.6-1.4.8l-.3 2.1c0 .2-.2.3-.4.3H6.4m1-14.4-.3 2.1c-1 .2-1.9.7-2.5 1.4l-2-.8-.6 1 1.7 1.2c-.3.9-.3 2 0 2.9L2 10.7l.6 1 2-.8c.6.7 1.5 1.2 2.5 1.4l.3 2.1h1.2l.3-2.1c1-.2 1.8-.7 2.5-1.4l2 .8.6-1-1.7-1.2c.3-.9.3-2 0-2.9L14 5.3l-.6-1-2 .8c-.6-.7-1.5-1.2-2.5-1.4l-.3-2.1H7.4z" style="fill:currentColor"/></symbol><symbol id="dx-size-grip" viewBox="0 0 12 12"><path id="_x32_" d="M10 9V7h2v2h-2zm0-8h2v2h-2V1zm-3 9h2v2H7v-2zm0-6h2v2H7V4zM4 7h2v2H4V7zm-3 3h2v2H1v-2z" style="fill-rule:evenodd;clip-rule:evenodd;fill:currentColor"/></symbol><symbol id="dx-time-edit-icon" viewBox="0 0 16 16"><path id="_x32_" d="M8 16c-4.4 0-8-3.6-8-8s3.6-8 8-8 8 3.6 8 8-3.6 8-8 8zM8 2C4.7 2 2 4.7 2 8s2.7 6 6 6 6-2.7 6-6-2.7-6-6-6zM7 8V4h2v3h3v2H7V8z" style="fill:currentColor"/></symbol><symbol id="dx-uc-cancel-icon" viewBox="0 0 16 16"><g id="_x32_"><path id="_x33_" d="M8 16c-4.4 0-8-3.6-8-8s3.6-8 8-8 8 3.6 8 8-3.6 8-8 8zm4-10.7L10.7 4 8 6.7 5.3 4 4 5.3 6.7 8 4 10.7 5.3 12 8 9.3l2.7 2.7 1.3-1.3L9.3 8 12 5.3z" style="fill:currentColor;clip-rule:currentColor"/></g></symbol><symbol id="dx-uc-continue-icon" viewBox="0 0 16 16"><g><path d="M5 3v10l7-5-7-5z" style="fill:currentColor;clip-rule:currentColor"/></g></symbol><symbol id="dx-uc-file-icon" viewBox="0 0 42 42"><g id="_x32_"><path id="_x33_" d="M34 42H8c-2.2 0-4-1.8-4-4V4c0-2.2 1.8-4 4-4h19l11 11v27c0 2.2-1.8 4-4 4zM27 4v7h7l-7-7zm7 10H24V4H8v34h26V14z" style="fill:currentColor;clip-rule:currentColor"/></g></symbol><symbol id="dx-uc-pause-icon" viewBox="0 0 16 16"><g id="_x32_"><path id="_x34_" d="M9 3h2v10H9V3z" style="fill:currentColor;clip-rule:currentColor"/><path id="_x33_" d="M5 3h2v10H5V3z" style="fill:currentColor;clip-rule:currentColor"/></g></symbol><symbol id="dx-uc-reload-icon" viewBox="0 0 16 16"><g id="_x32_"><path id="_x33_" d="M16 8v6l-2.2-2.2C12.6 13.7 10.4 15 8 15c-3.9 0-7-3.1-7-7s3.1-7 7-7c3.2 0 5.8 2.1 6.7 5h-2.1C11.8 4.2 10 3 8 3 5.2 3 3 5.2 3 8s2.2 5 5 5c1.9 0 3.5-1.1 4.4-2.6L10 8h6z" style="fill:currentColor;clip-rule:currentColor"/></g></symbol><symbol id="dx-uc-upload-icon" viewBox="0 0 16 16"><path id="_x32_" d="M2 16v-2h12v2H2zM9 5v7H7V5L3 9 1.5 7.5 8 1l6.5 6.5L13 9 9 5z" style="fill:currentColor;clip-rule:currentColor"/></symbol></svg>